<?xml version="1.0" encoding="utf-8"?>
<!-- Generator: Adobe Illustrator 16.0.0, SVG Export Plug-In . SVG Version: 6.00 Build 0)  -->
<!DOCTYPE svg PUBLIC "-//W3C//DTD SVG 1.1//EN" "http://www.w3.org/Graphics/SVG/1.1/DTD/svg11.dtd">
<svg version="1.1" id="Layer_1" xmlns="http://www.w3.org/2000/svg" xmlns:xlink="http://www.w3.org/1999/xlink" x="0px" y="0px"
	 width="960px" height="560px" viewBox="0 0 960 560" enable-background="new 0 0 960 560" xml:space="preserve">
<g>
	<defs>
		<rect id="SVGID_1_" x="-480" y="-260" width="1920" height="1080"/>
	</defs>
	<clipPath id="SVGID_2_">
		<use xlink:href="#SVGID_1_"  overflow="visible"/>
	</clipPath>
	<path clip-path="url(#SVGID_2_)" fill="#FFFFFF" d="M374.234,89.539c8.107-18.557,20.098-35.026,34.952-48.376
		c-15.162,15.017-20.727,37.566-21.627,41.962C385.025,87.575,374.498,89.491,374.234,89.539 M404.85,79.548
		c0.544-3.195,1.573-7.508,2.818-11.364c12.401-38.423,54.082-61.931,92.786-62.978c-22.387,0-40.854,5.19-59.642,14.497
		c-0.24,0.124-0.488,0.247-0.743,0.369c-2.829,1.422-5.602,2.938-8.317,4.542c-23.144,14.862-35.238,42.676-37.709,57.124
		C396.469,82.639,402.709,81.459,404.85,79.548 M403.53,99.317c1.537-3.487,2.005-9.884,0.374-12.949
		c-10.61,2.253-24.138,7.469-33.841,13.888c-3.079,9.005-5.269,18.422-6.467,28.146C363.731,128.208,377.734,108.216,403.53,99.317
		 M366.942,180.86c0,0,0.822-42.487,39.309-61.925c1.26-4.332-0.04-10.052-2.152-12.126c-20.446,7.223-36.297,24.771-41.534,36.007
		c-0.02,0.983-0.037,1.967-0.037,2.956C362.528,157.888,364.062,169.644,366.942,180.86L366.942,180.86z M428.26,215.04
		c-3.363-0.416-9.603-3.016-12.446-4.715c0,39.955,27.41,63.486,47.303,70.275c12.688,3.761,26.12,5.79,40.028,5.79
		c0.015,0,0.03-0.001,0.045-0.001C473.985,286.364,432.612,260.019,428.26,215.04 M408.397,124.649
		c-4.999,3.566-11.412,7.479-17.302,13.959c-16.182,17.805-21.35,39.345-16.988,63.107c7.324,16.869,17.856,32.018,30.829,44.682
		c-18.401-21.541-18.139-51.241-17.169-62.757c0.896-10.64,2.323-28.856,16.681-41.995c12.995-11.892,19.823-16.745,21.888-27.666
		s8.095-17.335,13.463-19.523l-0.202-1.278c0,0-10.262,1.282-16.26,12.203c-8.182-5.063-7.28-21.703-5.061-30.439
		c-0.494-0.044-1.456,0-1.456,0s-7.004,15.185-0.902,31.271c2.135,5.627,1.442,9.397-0.952,12.584
		c-0.787-4.424-2.218-10.038-4.74-13.807c-0.336-0.146-0.013-0.002-0.852,0.105C412.632,117.435,411.207,122.184,408.397,124.649
		 M409.6,207.259c-2.682-1.456-10.929-7.109-14.465-15.118c-1.598,30.419,5.617,50.613,16.345,60.262
		c0.664,0.57,1.332,1.136,2.006,1.695c0.069,0.059,0.14,0.117,0.209,0.177c9.312,7.686,19.634,14.189,30.732,19.296
		C417.127,256.992,409.6,230.66,409.6,207.259 M522.837,201.04c-5.048,6.042-12.49,1.843-17.599,0.664
		c-0.79,8.582-0.025,19.344,3.707,21.802c0.841,0.312,1.895,0.52,3.209,0.527c5.462-0.07,5.532-8.901,5.532-8.901
		s0.028,0.263,0.098,0.688c0.03-0.427,0.033-0.688,0.033-0.688s0.881,8.163,5.025,8.116c3.97-0.214,5.209-8.741,5.209-8.741
		s0.004,0.22,0.029,0.582c0.069-0.365,0.102-0.582,0.102-0.582s0.136,7.967,4.63,7.881c4.611-0.247,4.687-7.301,4.687-7.301
		s-0.006,0.469,0.041,1.152c0.084-0.69,0.09-1.153,0.09-1.153s-0.097,6.726,3.038,6.644c3.521-0.259,3.47-3.592,3.853-6.741
		c0.03,0.111,0.061,0.23,0.091,0.346c0.014-0.116,0.026-0.231,0.04-0.347c0.93,3.364,1.868,9-1.529,13.784
		c-3.56,5.013-21.909,5.58-35.792,5.641c-1.206,0.006-2.374,0.008-3.502,0.008c-0.224,0.013-0.451,0.016-0.683,0.006
		c-0.232,0.01-0.459,0.007-0.684-0.006c-14.088-0.005-35.305-0.216-39.162-5.648c-3.398-4.784-2.46-10.421-1.53-13.784
		c0.014,0.115,0.027,0.23,0.04,0.345c0.03-0.115,0.061-0.235,0.091-0.346c0.384,3.151,0.332,6.487,3.858,6.743
		c3.129,0.073,3.033-6.644,3.033-6.644s0.006,0.463,0.09,1.152c0.046-0.683,0.041-1.153,0.041-1.153s0.075,7.063,4.693,7.303
		c0.1,0.005,0.194,0.001,0.29-0.002c4.206-0.259,4.334-7.88,4.334-7.88s0.031,0.218,0.1,0.582c0.026-0.362,0.03-0.582,0.03-0.582
		s1.241,8.54,5.218,8.742c4.137,0.034,5.018-8.117,5.018-8.117s0.002,0.261,0.033,0.687c0.068-0.425,0.098-0.687,0.098-0.687
		s0.069,8.844,5.544,8.901c1.172-0.007,2.128-0.178,2.919-0.436c3.859-2.27,4.654-13.2,3.854-21.893
		c-5.108,1.179-12.551,5.378-17.6-0.664c-5.578-6.677,10.842-47.237,19.692-47.237C511.995,153.803,528.415,194.363,522.837,201.04
		 M500.857,199.902c-0.449-3.67-1.186-6.756-2.085-8.31c-0.007-0.012-0.011-0.022-0.017-0.034c-1.846,0.255-3.554,0.657-5.064,1.178
		l2.894,2.229l-6.099-0.792c-0.457,0.265-0.87,0.544-1.252,0.832l5.885,1.632l-7.722,0.244c-0.45,0.691-0.696,1.408-0.696,2.129
		c0,0.196,0.031,0.362,0.066,0.524l8.733-1.018l-7.532,2.282c1.343,0.427,3.692,0.092,6.679-0.297l2.57-1.465l-1.01,1.269
		C497.646,200.131,499.211,199.981,500.857,199.902 M509.705,194.965l2.895-2.229c-1.512-0.521-3.219-0.923-5.063-1.178
		c-0.007,0.012-0.011,0.022-0.018,0.034c-0.9,1.554-1.635,4.64-2.084,8.31c1.645,0.079,3.21,0.229,4.647,0.402l-1.008-1.269
		l2.569,1.465c2.987,0.389,5.336,0.724,6.679,0.297l-7.532-2.282l8.733,1.018c0.035-0.162,0.066-0.328,0.066-0.524
		c0-0.721-0.245-1.438-0.696-2.129l-7.722-0.244l5.886-1.632c-0.382-0.288-0.795-0.567-1.252-0.832L509.705,194.965z
		 M568.756,126.827c0.434,0.158,0.663,0.242,0.663,0.242s-0.223-0.102-0.641-0.293c-0.422-0.181-1.023-0.496-1.825-0.806
		c-0.806-0.3-1.774-0.705-2.934-1.029c-0.574-0.182-1.188-0.37-1.848-0.513c-0.657-0.151-1.346-0.346-2.08-0.457
		c-1.459-0.276-3.061-0.502-4.767-0.605c-0.427-0.027-0.858-0.054-1.298-0.082c-0.438-0.004-0.883-0.009-1.332-0.014
		c-0.9-0.029-1.816,0.03-2.752,0.065c-0.936,0.045-1.881,0.149-2.842,0.242c-0.952,0.142-1.93,0.238-2.894,0.439
		c-1.947,0.322-3.888,0.838-5.818,1.4c-1.918,0.602-3.815,1.292-5.636,2.099c-1.811,0.822-3.577,1.693-5.207,2.697
		c-0.44,0.263-0.87,0.532-1.295,0.807c4.188-5.415,9.845-12.434,17.213-14.335c9.367-2.418,19.288,2.976,25.954,6.491
		c4.919,2.593,8.48,6.558,9.766,11.538c2.63,10.19-5.14,21.272-17.9,26.76c0.022,0.084,0.046,0.161,0.069,0.246
		c2.22,8.463,0.914,8.79,2.351,11.951c1.438,3.161,3.331,3.557,1.845,5.81c-0.317,0.48-1.012,0.883-1.905,1.204
		c0.114,0.573,0.241,1.087,0.387,1.479c1.464,3.942,4.628,8.401,7.987,9.777c2.464,1.009,9.057,4.443,15.35,0.894
		c9.912-6.196,14.891-14.284,15.83-22.456c1.28-11.134-4.33-24.606-4.33-24.606c9.37,12.135,11.536,23.38,9.664,34.425
		c-1.872,11.045-14.214,22.188-26.695,26.557c-12.48,4.368-20.662,6.517-22.83,21.383c-2.188-7.906-4.488-15.927,2.473-22.46
		c0.012-0.024,0.018-0.044,0.031-0.069c2.564-2.113,2.166-4.958,1.814-6.646c-0.351-1.688-6.741-10.573-7.939-15.633
		c-0.184-0.777-0.318-1.498-0.434-2.191c-1.037-0.256-1.876-0.65-2.308-1.214c-1.899-2.48,1.315-4.007,1.295-6.089
		c-0.019-1.739-0.118-5.639-1.421-9.685c-15.29,2.918-29.434-3.135-32.293-14.221c-0.426-1.646-0.571-3.316-0.477-4.981
		c0.101-0.316,0.194-0.664,0.323-1.043c0.183-0.402,0.323-0.854,0.571-1.316c0.46-0.933,1.088-1.97,1.904-3.043
		c1.629-2.145,3.987-4.438,6.868-6.478c1.425-1.045,3.004-1.986,4.641-2.892c1.646-0.893,3.382-1.686,5.155-2.404
		c1.786-0.675,3.599-1.318,5.434-1.773c0.909-0.267,1.832-0.431,2.736-0.641c0.913-0.162,1.816-0.336,2.713-0.451
		c0.896-0.104,1.777-0.233,2.647-0.273c0.435-0.031,0.865-0.061,1.29-0.09c0.426-0.007,0.846-0.014,1.262-0.021
		c1.662-0.032,3.236,0.064,4.685,0.219c0.728,0.051,1.412,0.189,2.071,0.285c0.659,0.089,1.275,0.226,1.854,0.359
		c1.168,0.229,2.154,0.552,2.978,0.786C567.701,126.416,568.32,126.681,568.756,126.827 M564.97,139.14l-8.362,6.984l4.25-7.489
		c-2.66-0.11-5.655,0.135-8.833,0.781c-0.216,0.044-0.43,0.093-0.646,0.14l-0.744,7.121l-3.007-6.127
		c-2.767,0.866-5.338,1.97-7.591,3.228l5.729,4.996L536.594,146c-1.376,1.035-2.538,2.128-3.438,3.243l9.4,2.002l-10.809,0.186
		c-0.422,0.884-0.667,1.768-0.702,2.634c-0.012,0.311,0.008,0.612,0.048,0.906l11.36-1.217l-10.889,2.744
		c0.587,1.167,1.656,2.139,3.104,2.89l7.979-2.945l-6.119,3.718c1.853,0.613,4.095,0.957,6.615,0.994l3.754-3.399l-2.1,3.377
		c1.929-0.071,3.99-0.313,6.138-0.737c-0.731-1.391-1.466-2.475-2.106-3.284c-3.765,0.201-6.459-1.018-6.373-3.132
		c0.104-2.572,4.283-5.491,9.334-6.518c5.053-1.028,9.063,0.224,8.959,2.797c-0.048,1.176-0.954,2.423-2.4,3.531
		c0.544,1.027,1.119,2.263,1.68,3.748c2.262-0.999,4.32-2.146,6.061-3.391l-5.957-1.087l7.508-0.114
		c1.351-1.137,2.441-2.329,3.214-3.534l-9.454,0.957l10.327-2.667c0.254-0.672,0.404-1.342,0.432-2.001
		c0.029-0.714-0.084-1.381-0.325-2.001l-10.56,3.75l9.183-5.737C569.204,140.531,567.32,139.654,564.97,139.14 M437.656,126.775
		c-0.418,0.191-0.641,0.293-0.641,0.293s0.23-0.084,0.663-0.242c0.435-0.146,1.055-0.411,1.876-0.655
		c0.824-0.234,1.809-0.557,2.978-0.786c0.578-0.133,1.194-0.27,1.854-0.359c0.658-0.096,1.343-0.234,2.071-0.285
		c1.447-0.155,3.022-0.251,4.684-0.219c0.415,0.007,0.836,0.014,1.262,0.021c0.425,0.029,0.855,0.059,1.29,0.09
		c0.87,0.04,1.752,0.169,2.648,0.273c0.896,0.115,1.799,0.289,2.711,0.451c0.906,0.21,1.829,0.374,2.738,0.641
		c1.834,0.455,3.647,1.098,5.433,1.773c1.773,0.718,3.51,1.511,5.156,2.404c1.636,0.906,3.216,1.847,4.64,2.892
		c2.88,2.04,5.24,4.333,6.868,6.478c0.816,1.073,1.444,2.11,1.903,3.043c0.249,0.462,0.39,0.914,0.572,1.316
		c0.129,0.379,0.223,0.727,0.323,1.043c0.095,1.665-0.051,3.335-0.477,4.981c-2.86,11.086-17.002,17.139-32.293,14.221
		c-1.302,4.046-1.402,7.946-1.42,9.685c-0.021,2.082,3.194,3.609,1.295,6.089c-0.432,0.564-1.271,0.958-2.308,1.214
		c-0.115,0.693-0.25,1.414-0.434,2.191c-1.199,5.06-7.588,13.945-7.939,15.633s-0.75,4.533,1.814,6.646
		c0.017,0.032,0.025,0.058,0.04,0.089c6.937,6.529,4.638,14.542,2.451,22.441c-2.167-14.866-10.349-17.016-22.83-21.384
		c-12.48-4.368-24.823-15.511-26.695-26.556c-1.872-11.046,0.295-22.29,9.664-34.425c0,0-5.61,13.471-4.33,24.605
		c0.938,8.158,5.901,16.232,15.778,22.424l0.001-0.001c6.311,3.61,12.941,0.152,15.414-0.861c3.358-1.376,6.522-5.835,7.987-9.777
		c0.146-0.392,0.273-0.906,0.387-1.479c-0.894-0.321-1.589-0.724-1.905-1.204c-1.487-2.253,0.406-2.649,1.843-5.81
		c1.438-3.161,0.132-3.488,2.352-11.951c0.022-0.085,0.047-0.162,0.069-0.246c-12.761-5.488-20.53-16.57-17.901-26.76
		c1.285-4.98,4.847-8.945,9.766-11.538c6.666-3.515,16.586-8.909,25.955-6.491c7.368,1.901,13.024,8.92,17.212,14.335
		c-0.424-0.275-0.854-0.544-1.295-0.807c-1.629-1.004-3.396-1.875-5.207-2.697c-1.82-0.807-3.717-1.497-5.635-2.099
		c-1.931-0.562-3.872-1.078-5.819-1.4c-0.965-0.201-1.941-0.297-2.893-0.439c-0.961-0.093-1.907-0.197-2.842-0.242
		c-0.936-0.035-1.852-0.094-2.752-0.065c-0.45,0.005-0.894,0.01-1.333,0.014c-0.438,0.028-0.87,0.055-1.297,0.082
		c-1.706,0.103-3.307,0.329-4.767,0.605c-0.734,0.111-1.422,0.306-2.08,0.457c-0.661,0.143-1.274,0.331-1.847,0.513
		c-1.159,0.324-2.128,0.729-2.934,1.029C438.679,126.28,438.078,126.595,437.656,126.775 M435.979,141.714l9.183,5.737l-10.561-3.75
		c-0.24,0.62-0.353,1.287-0.324,2.001c0.027,0.659,0.178,1.329,0.432,2.001l10.327,2.667l-9.454-0.957
		c0.772,1.205,1.863,2.397,3.214,3.534l7.507,0.114l-5.957,1.087c1.741,1.245,3.799,2.392,6.061,3.391
		c0.56-1.485,1.136-2.721,1.68-3.748c-1.447-1.108-2.353-2.355-2.401-3.531c-0.104-2.573,3.907-3.825,8.959-2.797
		c5.051,1.027,9.23,3.946,9.334,6.518c0.085,2.114-2.608,3.333-6.373,3.132c-0.64,0.809-1.375,1.893-2.107,3.284
		c2.148,0.424,4.21,0.666,6.138,0.737l-2.099-3.377l3.754,3.399c2.52-0.037,4.762-0.381,6.615-0.994l-6.119-3.718l7.979,2.945
		c1.448-0.751,2.517-1.723,3.104-2.89l-10.889-2.744l11.361,1.217c0.04-0.294,0.059-0.595,0.046-0.906
		c-0.035-0.866-0.279-1.75-0.701-2.634l-10.808-0.186l9.4-2.002c-0.901-1.115-2.062-2.208-3.438-3.243l-9.172,2.773l5.728-4.996
		c-2.253-1.258-4.824-2.362-7.591-3.228l-3.006,6.127l-0.745-7.121c-0.215-0.047-0.429-0.096-0.645-0.14
		c-3.178-0.646-6.173-0.891-8.834-0.781l4.251,7.489l-8.362-6.984C439.114,139.654,437.229,140.531,435.979,141.714
		 M455.975,260.756c5.516,7.206,17.581,13.239,17.581,13.239s18.462-8.043,20.126-35.38c-3.139-0.103-5.617-0.312-9.241-0.538
		C484.44,238.077,482.448,263.876,455.975,260.756 M632.188,89.538c-8.106-18.557-20.098-35.025-34.952-48.376
		c15.162,15.017,20.728,37.567,21.628,41.962C621.396,87.575,631.924,89.491,632.188,89.538 M602.323,106.81
		c-2.112,2.073-3.412,7.793-2.152,12.126c38.486,19.438,39.309,61.924,39.309,61.924h0.001c2.881-11.216,4.413-22.973,4.413-35.088
		c0-0.988-0.018-1.972-0.037-2.956C638.62,131.58,622.77,114.032,602.323,106.81 M632.314,201.715
		c4.361-23.761-0.805-45.302-16.988-63.107c-5.889-6.48-12.302-10.393-17.301-13.958c-2.811-2.466-4.236-7.215-0.979-19.554
		c-0.838-0.108-0.516-0.252-0.852-0.106c-2.521,3.77-3.953,9.384-4.74,13.808c-2.393-3.187-3.086-6.957-0.952-12.584
		c6.103-16.087-0.9-31.272-0.9-31.272s-0.962-0.043-1.456,0c2.219,8.737,3.12,25.378-5.063,30.44
		c-5.998-10.921-16.26-12.204-16.26-12.204l-0.202,1.278c5.368,2.189,11.398,8.603,13.463,19.523
		c2.065,10.921,8.895,15.774,21.89,27.666c14.357,13.139,15.783,31.355,16.681,41.996c0.969,11.515,1.231,41.216-17.17,62.756
		C614.459,233.732,624.991,218.583,632.314,201.715 M602.892,99.316c25.796,8.899,39.799,28.892,39.934,29.085
		c-1.198-9.724-3.387-19.141-6.466-28.146c-9.704-6.418-23.232-11.635-33.841-13.887C600.888,89.434,601.355,95.83,602.892,99.316
		 M598.755,68.183c1.244,3.857,2.273,8.169,2.818,11.365c2.139,1.912,8.38,3.091,10.806,2.188
		c-2.47-14.448-14.564-42.262-37.708-57.124c-2.716-1.603-5.488-3.119-8.317-4.541c-0.254-0.122-0.502-0.245-0.743-0.37
		c-18.787-9.307-37.255-14.497-59.642-14.497C544.672,6.252,586.354,29.76,598.755,68.183 M590.607,210.324
		c-2.843,1.699-9.083,4.299-12.446,4.715c-4.352,44.979-45.724,71.325-74.93,71.35v-0.002c7.409-0.021,17.546-5.692,23.049-9.533
		c-17.733-10.869-18.86-37.858-18.86-37.858h-4.229h-4.188c0,0-1.127,26.99-18.859,37.859c5.502,3.841,15.64,9.513,23.048,9.533
		v0.001h0.01c0.013,0,0.022,0.001,0.031,0.001v-0.001c0.015,0,0.03,0,0.045,0c13.908,0,27.34-2.029,40.028-5.79
		C563.197,273.81,590.607,250.279,590.607,210.324 M596.823,207.258c0,23.402-7.529,49.733-34.827,66.313
		c11.098-5.108,21.419-11.611,30.731-19.296c0.068-0.06,0.14-0.118,0.21-0.177c0.674-0.559,1.341-1.125,2.005-1.696
		c10.728-9.649,17.944-29.842,16.345-60.261C607.751,200.148,599.504,205.803,596.823,207.258 M521.982,238.076
		c-3.625,0.226-6.104,0.436-9.241,0.538c1.664,27.338,20.125,35.38,20.125,35.38s12.065-6.032,17.581-13.238
		C523.975,263.875,521.982,238.076,521.982,238.076 M494.58,31.169c-1.402,0.171-2.744,0.626-4.101,0.971
		c-1.37,0.309-2.648,0.895-3.956,1.367c-5.164,2.077-9.818,5.164-13.659,8.925c-3.847,3.759-6.883,8.187-8.972,12.898
		c-0.593,1.147-0.96,2.382-1.396,3.578c-0.196,0.605-0.454,1.189-0.595,1.807c-0.15,0.614-0.3,1.227-0.45,1.838
		c-0.146,0.611-0.292,1.22-0.438,1.827c-0.087,0.632-0.174,1.262-0.26,1.89c-0.084,0.627-0.167,1.252-0.251,1.876
		c-0.106,0.636-0.063,1.187-0.103,1.782c-0.02,0.585-0.039,1.167-0.059,1.747l-0.03,0.869l-0.005,0.196l0.004,0.112l0.009,0.224
		l0.019,0.447c0.024,0.596,0.049,1.189,0.073,1.78c0.053,0.589,0.106,1.176,0.158,1.761c0.08,1.171,0.302,2.318,0.45,3.462
		c0.236,1.131,0.399,2.266,0.697,3.362c0.494,2.216,1.221,4.33,1.963,6.383c0.817,2.026,1.666,3.997,2.684,5.831
		c3.95,7.418,9.398,13.068,14.83,17.059c5.463,4.014,10.971,6.314,15.587,7.677c4.653,1.312,8.428,1.725,11.004,1.874
		c1.295,0.095,2.269,0.083,2.927,0.087c0.66,0.004,1,0.006,1,0.006l0.02-0.749c0,0-0.34-0.015-0.999-0.044
		c-0.658-0.029-1.642-0.056-2.888-0.198c-2.501-0.24-6.198-0.791-10.672-2.241c-4.435-1.51-9.684-3.926-14.813-7.952
		c-5.097-4.011-10.119-9.592-13.626-16.742c-0.908-1.768-1.647-3.659-2.355-5.593c-0.634-1.961-1.255-3.969-1.648-6.067
		c-0.248-1.037-0.362-2.11-0.551-3.174c-0.1-1.079-0.276-2.157-0.313-3.257c-0.031-0.548-0.062-1.098-0.094-1.65
		c-0.004-0.554-0.009-1.109-0.013-1.666l-0.004-0.418l-0.002-0.209v-0.054c0.001-0.006,0.004-0.072,0.004-0.072l0.059-0.868
		c0.038-0.579,0.077-1.16,0.116-1.744l0.059-0.876c0.013-0.299,0.041-0.585,0.099-0.847c0.095-0.541,0.189-1.083,0.284-1.628
		c0.093-0.543,0.185-1.088,0.278-1.635c0.15-0.548,0.3-1.097,0.451-1.649c0.149-0.551,0.299-1.104,0.449-1.658
		c0.139-0.558,0.394-1.081,0.585-1.625c0.424-1.073,0.776-2.184,1.346-3.207c1.999-4.211,4.841-8.129,8.378-11.41
		c3.532-3.283,7.758-5.925,12.382-7.646c1.173-0.383,2.311-0.886,3.533-1.119c1.21-0.269,2.397-0.654,3.643-0.764
		c1.236-0.146,2.46-0.413,3.717-0.396l1.875-0.069l0.469-0.019l0.235-0.009c0.019,0,0.018,0,0.026,0l0.089,0.005l1.002,0.064
		c9.954,0.354,19.366,6.351,24.054,15.068c0.338,0.517,0.533,1.109,0.811,1.658c0.237,0.567,0.563,1.097,0.732,1.691
		c0.395,1.164,0.849,2.306,1.079,3.515c0.126,0.599,0.322,1.182,0.396,1.791l0.245,1.818c0.112,0.602,0.115,1.215,0.132,1.826
		l0.032,0.915l0.017,0.457l0.01,0.228l0.004,0.114c0.001-0.009,0.001,0.004,0.001,0.023l-0.128,1.958l-0.033,0.506
		c-0.021,0.15-0.051,0.273-0.075,0.411l-0.146,0.805l-0.135,0.804l-0.231,0.845c-0.176,0.559-0.267,1.144-0.506,1.68
		c-0.736,2.224-1.944,4.254-3.337,6.087c-2.79,3.706-6.805,6.286-11.047,7.623c-1.086,0.261-2.153,0.585-3.262,0.684
		c-0.55,0.067-1.093,0.181-1.649,0.175l-0.827,0.035l-0.413,0.02l-0.206,0.01l-0.104,0.005c0.022,0.002-0.02,0.002-0.051,0.002
		l-1.794-0.102c-0.539-0.069-0.929-0.168-1.402-0.229c-0.464-0.082-0.989-0.26-1.482-0.375c-0.502-0.124-0.97-0.357-1.458-0.515
		c-3.847-1.506-6.96-4.513-8.753-8.055c-0.898-1.777-1.458-3.695-1.682-5.641c-0.024-0.489-0.06-0.977-0.102-1.465l-0.008-0.091
		c0-0.009-0.001-0.01-0.001-0.01l0.004-0.132l0.014-0.446l0.028-0.889l0.166-1.179c0.119-0.438,0.184-0.892,0.327-1.323
		c1.047-3.482,3.644-6.387,6.804-7.864c1.568-0.765,3.273-1.193,4.989-1.276l0.159-0.016c-0.043-0.003,0.211-0.002-0.076-0.01
		l0.1,0.002l0.396,0.009l0.791,0.018c0.363,0.063,0.646,0.063,1.033,0.141c0.385,0.096,0.782,0.145,1.15,0.29l0.563,0.18
		l0.539,0.238c0.728,0.304,1.381,0.739,2.016,1.188c0.596,0.496,1.177,1.012,1.66,1.608c0.986,1.174,1.695,2.546,2.08,3.983
		c0.094,0.36,0.146,0.727,0.229,1.088c0.037,0.369,0.074,0.736,0.111,1.101c-0.003,0.149,0.011,0.924-0.032,1.125
		c-0.033,0.281-0.047,0.568-0.137,0.916c-0.266,1.33-0.888,2.553-1.722,3.566c-0.827,1.025-1.895,1.808-3.044,2.31
		c-1.161,0.508-2.351,0.744-3.606,0.725c-0.337-0.015-0.501-0.04-0.782-0.066c-0.271-0.06-0.553-0.083-0.813-0.176
		c-0.539-0.129-1.03-0.372-1.506-0.621c-0.938-0.525-1.704-1.272-2.273-2.091c-0.571-0.823-0.931-1.731-1.117-2.626
		c-0.188-0.9-0.194-1.797-0.033-2.532c0.325-1.566,1.263-2.717,2.151-3.434c0.919-0.704,1.802-1.006,2.398-1.138
		c0.3-0.082,0.535-0.096,0.691-0.119c0.158-0.02,0.238-0.03,0.238-0.03v-0.749c0,0-0.091-0.002-0.268-0.005
		c-0.177-0.001-0.444-0.021-0.794,0.02c-0.697,0.054-1.763,0.241-2.994,0.929c-1.199,0.694-2.581,1.968-3.279,3.994
		c-0.362,1.043-0.483,2.168-0.395,3.369c0.087,1.204,0.441,2.483,1.097,3.702c1.296,2.434,3.884,4.648,7.498,5.098
		c3.243,0.375,7.223-0.696,10.041-3.583c0.729-0.693,1.334-1.527,1.896-2.408c0.515-0.907,0.977-1.878,1.263-2.927
		c0.164-0.498,0.277-1.089,0.371-1.693c0.06-0.331,0.072-0.537,0.091-0.759l0.03-0.337l0.015-0.169l0.008-0.084
		c-0.002,0.083,0.011-0.207,0.008-0.216c-0.008-0.538-0.012-1.083-0.038-1.63c-0.068-0.544-0.116-1.098-0.215-1.647
		c-0.796-4.381-3.677-8.762-8.191-11.053l-0.844-0.427l-0.886-0.35c-0.587-0.254-1.212-0.4-1.831-0.578
		c-0.625-0.166-1.39-0.268-2.062-0.371l-0.789-0.062l-0.395-0.032l-0.1-0.007c-0.354-0.011-0.166-0.002-0.275-0.004l-0.237,0.005
		c-2.529-0.024-5.142,0.458-7.595,1.482c-4.897,2.052-9.089,6.307-10.971,11.741c-0.246,0.671-0.401,1.376-0.599,2.07
		c-0.157,0.741-0.276,1.556-0.385,2.32l-0.063,0.888l-0.03,0.445l-0.017,0.223c0.003-0.129-0.014,0.299-0.01,0.305l0.004,0.132
		c0.019,0.703,0.043,1.41,0.079,2.118c0.253,2.83,1.007,5.662,2.264,8.296c2.479,5.291,7.099,9.678,12.754,11.942
		c0.718,0.251,1.422,0.551,2.163,0.737c0.752,0.181,1.454,0.396,2.255,0.534c0.801,0.12,1.68,0.257,2.424,0.325l1.937,0.086
		c0.437,0.007,0.201-0.002,0.335-0.002l0.139-0.007l0.279-0.014l0.56-0.03l1.117-0.063c0.748-0.013,1.486-0.165,2.228-0.281
		c1.49-0.191,2.936-0.639,4.384-1.052c5.717-1.923,10.894-5.64,14.402-10.634c1.753-2.481,3.214-5.212,4.084-8.149
		c0.271-0.715,0.39-1.477,0.59-2.214c0.088-0.373,0.184-0.738,0.262-1.119l0.171-1.2l0.16-1.202l0.071-0.593l0.018-0.507
		l0.072-2.031c0.011-0.368-0.001-0.183-0.001-0.301l-0.009-0.139l-0.017-0.28l-0.035-0.558l-0.07-1.117
		c-0.046-0.745-0.082-1.49-0.231-2.224l-0.369-2.21c-0.118-0.737-0.364-1.448-0.545-2.172c-0.337-1.458-0.913-2.84-1.444-4.234
		c-0.237-0.708-0.635-1.349-0.946-2.025c-0.351-0.657-0.626-1.355-1.044-1.974c-3.014-5.13-7.266-9.529-12.378-12.488
		c-2.508-1.557-5.27-2.639-8.06-3.498c-1.436-0.33-2.796-0.763-4.33-0.918c-0.745-0.101-1.504-0.212-2.235-0.295l-2.009-0.075
		l-1.004-0.038l-0.125-0.005c-0.014-0.002-0.33-0.006-0.26,0l-0.267,0.016l-0.532,0.032l-2.125,0.132
		C497.361,30.64,495.974,30.961,494.58,31.169 M693.406,456.191c-0.14,0-0.14,0.142-0.14,0.142c0-0.424-0.422-0.424-0.703-0.424
		c-0.563-0.14-1.267-0.14-1.969-0.14c-4.038-0.122-53.43,0.287-59.517,0.118c-0.037,0.013-0.073,0.021-0.108,0.021l-0.026-0.025
		c-0.594-0.02-0.657-0.046-0.081-0.081l-0.033-0.033h-2.953c-0.844,0-1.406,0.422-1.688,1.125c0,0.281-0.14,0.563-0.14,0.703
		c0,0.422-0.142,0.703,0.14,0.984c0,0-0.14,0.141-0.14,0.281h-0.142c0.281,0.844,0.422,1.827,0.563,2.672
		c0.281,1.124,0.563,2.109,0.845,3.094c0.131,0.655,0.266,1.306,0.511,1.847c0.008-0.01,0.021-0.019,0.051-0.019
		c0-0.141,0.142-0.281,0.281-0.141c0.142,0.141,0.142,0.422,0.142,0.563c-0.281,0-0.423-0.141-0.563-0.281
		c0.141,0.422,0.141,0.703,0.282,1.125c0,0.141,0,0.422,0.281,0.281v0.141h-0.142c0.142,0.984,0.281,1.828,0.281,2.813
		c0.141,1.125,0.281,2.391,0.281,3.516c0,0.141,0,0.141,0.141,0.281s0.141,0.281,0,0.563c0,0-0.141,0-0.141,0.141
		c0.141,0.422,0.281,0.702,0.702,0.844c0.424,0.14,0.846,0.281,1.267,0.281c0.703,0,1.266,0.141,1.969-0.142
		c0.281,0,0.703-0.14,0.984-0.281c0.141-0.14,0.28-0.14,0.423-0.28c0.281-0.142,0.421-0.422,0.562-0.563
		c0-0.141,0-0.281-0.141-0.422h0.281c0.282-0.422,0.422-0.985,0.422-1.547c0-0.844,0-1.688,0.141-2.531
		c0.141-1.969,1.547-4.078,4.078-4.922c0.142,0,0.281-0.14,0.281-0.14h0.281c0.845,0,1.688,0,2.53-0.142h0.281
		c0.141,0,0.282,0,0.423-0.141h0.142c0.14,0.141,0.28,0.141,0.28,0.141h1.97c-0.282,0-0.422-0.141-0.282-0.423h-0.282
		c-0.281-0.14,0.564-0.843,0.845,0c0,0.143-0.141,0.282-0.141,0.423c1.406,0.281,2.812,0.703,3.938,1.688
		c0.14,0.14,0.28,0.281,0.421,0.14c0.141,0.142,0.141,0.282,0.281,0.423s0.421,0.422,0.563,0.563
		c0.14,0.141,0.281,0.141,0.281,0.141c0.141,0.141,0.141,0.421,0.28,0.563c0.704,0.984,1.126,2.108,1.407,3.375
		c0,0.281,0.14,0.422,0.14,0.703c0,0.141,0,0.28-0.14,0.422c0,0.28,0,0.562,0.14,0.844v0.281c0.142,0.141,0.142,0.281,0,0.281
		c-0.14,0.141-0.14,0.281-0.14,0.422v4.922v22.78c0,0.141,0.14,0.141,0.14,0.281c2.392,0,4.36,0.703,6.048,2.392
		c2.391-1.97,4.922-3.095,8.015-2.673v-19.405c-0.14-0.141-0.14-0.141-0.281-0.281c0.142,0,0.142-0.141,0.281-0.141v-0.281v-9.563
		v-0.28c0.282-1.828,0.985-3.517,2.11-4.922c1.547-1.547,3.234-2.391,5.344-2.672h2.39h1.969c2.109,0.142,3.798,0.984,4.923,2.813
		c0.14,0,0.14,0.141,0.28,0.141l0.142,0.141c-0.142,0.141,0,0.141,0,0.28c0.28,0.703,0.562,1.407,0.562,2.25
		c0.142,0.703,0.142,1.548,0.142,2.25c0,0.985,0.421,1.829,1.125,2.392c0.562,0.422,1.125,0.703,1.687,0.703
		c0.985,0,1.828,0,2.813-0.281c0.562-0.142,0.702-0.563,0.843-1.125c0-0.985,0-1.969,0.141-2.953c0-0.141-0.141-0.282-0.141-0.422
		c0.141,0,0.281-1.125,0.281-1.968c0,0.14-0.141,0.14-0.281,0.28v-0.141c0-0.14,0.141-0.282,0.141-0.422
		c0.141,0.14,0.141,0.282,0.141,0.282s0.141,0,0.141-0.143c0.141-1.827,0.562-3.515,0.985-5.343c0.28-1.266,0.702-2.531,0.983-3.797
		v-0.422c0,0,0.141,0,0.141-0.141c0.141-0.844,0.141-1.547,0-2.391C693.969,457.035,693.828,456.613,693.406,456.191
		 M631.078,455.888c0.112-0.04,0.244-0.118,0.454-0.118c-0.284,0.012-0.501,0.023-0.67,0.033l0.081,0.081
		C630.984,455.885,631.032,455.887,631.078,455.888 M753.498,380.339v-59.295c0-1.122-0.561-4.489-5.236-6.92
		c-2.993-1.497-2.433-11.037,0-11.037h29.366c2.618,0,2.992,9.54,0,11.037c-4.489,2.431-5.051,5.984-5.237,6.92v61.914
		c0,0-2.993-1.684-8.979-2.432C757.613,379.777,753.498,380.339,753.498,380.339 M759.109,354.339l3.741,9.166l3.554-9.166
		l-3.554-36.475L759.109,354.339z M696.262,366.496v-45.452c-0.188-1.122-0.748-4.677-5.238-6.92
		c-2.993-1.497-2.432-11.037,0-11.037h29.367c2.431,0,2.992,9.54,0,11.037c-4.678,2.431-5.051,5.984-5.238,6.92v45.08h-1.309h-0.562
		c-3.366,0-6.358,1.309-8.791,3.554c-1.871-1.871-4.676-3.182-7.481-3.182H696.262z M701.872,354.339l3.742,9.166l3.553-9.166
		l-3.553-36.475L701.872,354.339z M228.272,375.476c-5.238,2.993-3.741,9.353,0,12.159c0.934,0.748,3.366,1.87,3.366,5.798v22.633
		c0,0.936,0.561,4.489,5.238,6.921c2.992,1.496,2.431,10.85,0,10.85h-29.367c-2.432,0-2.993-9.354,0-10.85
		c4.49-2.432,5.051-5.985,5.238-6.921v-27.497c0,0,0-2.431,2.618-4.862c2.431-2.245,4.115-6.922-0.561-9.727
		c2.058,3.741-0.374,6.92-4.116,6.92c-4.302-0.187-5.985-4.863-3.927-8.229c1.496-2.244,3.927-3.554,6.92-3.554
		c3.181,0,5.986,2.058,7.296,5.051c1.683-3.181,5.05-5.238,8.791-5.426c3.741,0,7.295,1.685,9.352,4.678
		c2.807,4.302,0.748,10.662-5.05,11.034C229.207,384.828,225.84,380.339,228.272,375.476 M220.229,388.756l1.122-1.31
		c-0.186-0.935-0.373-1.684-0.186-2.057C221.165,385.39,220.79,386.886,220.229,388.756 M217.61,395.863l5.237-5.424
		c-0.374-0.374-0.561-0.935-0.935-1.496l-3.18,3.366c-0.374,0.562-0.936,1.123-1.497,1.497L217.61,395.863z M222.66,423.734
		l-0.561,0.562l0.374,1.496L222.66,423.734z M223.409,418.496l-1.871,2.059l0.374,2.058l1.122-1.123L223.409,418.496z
		 M224.343,413.26l-3.366,3.367l0.373,2.057l2.432-2.431L224.343,413.26z M225.092,408.022l-4.864,4.863l0.374,2.057l4.116-3.927
		L225.092,408.022z M225.84,402.784l-6.173,6.174l0.374,2.244l5.425-5.425L225.84,402.784z M226.775,397.548l-7.668,7.669
		l0.373,2.057l6.734-6.732L226.775,397.548z M226.214,393.619l-7.669,7.67l0.187,2.243l8.231-8.229l0.186-1.123
		C226.775,393.993,226.588,393.807,226.214,393.619 M223.782,391.562l-5.986,5.986l0.375,2.058l6.921-6.734
		C224.531,392.498,224.156,392.123,223.782,391.562 M219.954,498.525l-99.943,5.527l99.943,5.524l-25.154-5.524L219.954,498.525z
		 M723.01,436.641c-8.979-3.741-17.209-2.805-26.748-2.805h-5.238c-2.432,0-2.993-9.54,0-11.037
		c4.302-2.244,5.051-5.424,5.238-6.733v-27.497c0,0,0-2.618,2.617-4.862c2.433-2.245,4.115-6.922-0.561-9.727
		c2.058,3.554-0.374,6.92-4.115,6.92c-4.302-0.187-5.798-4.863-3.741-8.229c1.31-2.244,3.929-3.554,6.733-3.554
		c3.181,0,6.174,2.058,7.296,4.863c1.683-2.993,5.05-5.051,8.791-5.238c3.928-0.187,7.295,1.685,9.353,4.489
		c2.807,4.49,0.748,10.851-5.05,11.223c-4.863,0.375-8.23-4.114-5.799-8.978c-5.051,2.993-3.741,9.353,0,12.159
		c0.936,0.748,3.366,1.87,3.366,5.798v21.885c0,9.353,11.598,11.41,17.77,15.712c3.741,2.432,7.295,5.051,11.41,7.295
		c2.059,1.122,4.303,2.059,6.734,2.807s5.051,1.122,7.669,1.309c1.309,0.188,2.806,0.188,4.115,0c1.309,0,2.806-0.187,4.114-0.561
		c2.807-0.563,5.426-1.685,7.857-3.368c2.431-1.683,4.489-3.927,5.798-6.546c1.496-2.807,2.433-5.612,2.806-8.791
		c0.748-5.986-0.561-11.972-2.992-16.648c-1.311-2.431-2.806-4.489-4.676-6.172c-1.685-1.497-3.742-2.619-5.8-3.367
		c-2.243-0.748-4.302-1.123-6.359-1.123c-4.303,0-9.353,1.871-12.532,5.799c-0.936,1.122-1.684,2.245-2.057,3.367
		c-0.562,1.122-0.748,2.244-0.937,3.181c0,0.935-0.187,2.057,0,2.992c0.188,1.122,0.562,2.058,0.937,2.992
		c0.748,2.059,1.869,3.555,2.617,4.677c0.749,0.936,1.311,1.684,1.123,2.058c-0.187,0.374-0.935,0.374-2.432,0.187
		c-0.748,0-1.684-0.187-2.619-0.374c-1.122-0.374-2.431-0.748-3.74-1.497c-1.31-0.748-2.619-1.869-3.929-3.365
		c-1.309-1.685-2.431-3.555-3.179-5.986c-0.562-2.431-0.749-5.05-0.188-7.856c0.374-2.618,1.311-5.425,2.993-7.856
		c1.497-2.431,3.554-4.863,5.985-6.733c6.922-5.05,12.532-4.862,19.454-3.928c3.18,0.374,6.547,1.871,9.539,3.554
		c2.993,1.871,5.799,4.115,8.043,6.921c2.244,2.807,4.115,5.985,5.237,9.354c2.433,6.733,2.245,14.216,0.188,20.949
		c-2.244,6.733-6.359,12.532-11.598,16.46c-5.237,3.929-11.597,5.985-17.77,6.359c-2.993,0.188-5.985,0.188-8.791-0.187
		c-2.992-0.374-5.798-0.936-8.417-1.871c-2.619-0.935-5.051-1.87-7.108-2.993c-2.245-0.934-4.303-2.057-6.173-2.992
		C726.375,438.138,724.505,437.39,723.01,436.641 M703.931,388.568l1.122-1.122c-0.374-0.935-0.374-1.684-0.374-2.057
		C704.679,385.39,704.491,386.886,703.931,388.568 M701.124,395.863l5.425-5.424c-0.375-0.561-0.748-0.935-0.935-1.496l-3.368,3.18
		c-0.374,0.748-0.935,1.31-1.309,1.684L701.124,395.863z M701.872,399.605l6.733-6.921c-0.373-0.375-0.935-0.748-1.31-1.123
		l-5.798,5.986L701.872,399.605z M706.362,423.734l-0.562,0.562l0.187,1.496L706.362,423.734z M707.109,418.496l-2.057,1.871
		l0.373,2.245l1.31-1.31L707.109,418.496z M707.857,413.26l-3.366,3.367l0.374,2.057l2.619-2.618L707.857,413.26z M708.605,408.022
		l-4.675,4.676l0.373,2.244l3.929-4.115L708.605,408.022z M709.541,402.784l-6.172,6.174l0.188,2.058l5.424-5.425L709.541,402.784z
		 M710.289,397.548l-7.669,7.669l0.374,2.057l6.922-6.92L710.289,397.548z M710.851,394.18c-0.373-0.187-0.748-0.373-1.122-0.561
		l-7.668,7.67l0.373,2.058l8.229-8.231L710.851,394.18z M776.5,498.525l-8.358,3.942c-0.649-1.796-2.365-3.081-4.384-3.081
		c-2.058,0-3.801,1.332-4.421,3.178c-0.521-0.918-1.495-1.545-2.628-1.545c-1.494,0-2.729,1.084-2.979,2.507l-11.337-2.904
		l-19.563,3.431l19.563,3.431l11.337-2.906c0.249,1.424,1.484,2.508,2.979,2.508c1.133,0,2.107-0.627,2.628-1.546
		c0.62,1.848,2.363,3.18,4.421,3.18c2.02,0,3.734-1.286,4.384-3.081l8.358,3.939l23.16-5.524L776.5,498.525z M805.496,352.843
		c0.188-9.54-0.561-22.446,2.993-30.302c1.123-2.807,2.619-5.8,4.864-8.417c2.244-2.807,5.236-5.238,8.603-6.921
		c3.368-1.496,6.734-3.181,10.288-3.367c8.044-0.936,11.971-0.936,20.016,0c3.554,0.187,7.107,1.871,10.474,3.367
		c3.181,1.683,14.216,10.848,14.216,20.388c0,1.122,0.748,4.49,5.238,6.921c2.993,1.496,2.431,10.849,0,10.849h-5.238h-18.704
		h-5.237c-2.433,0-2.807-9.353,0-10.849c4.489-2.245,5.05-5.799,5.237-6.921v-2.433c-1.31-12.157-13.094-17.77-22.819-11.596
		c-2.245,1.309-3.93,3.366-5.052,5.05c-1.123,1.87-1.871,3.367-2.432,5.05c-0.562,1.684-1.122,3.367-1.496,5.051
		c-2.245,8.792-2.806,17.583-2.619,26.561c0,1.123,0.188,5.986,0.374,11.223h-0.561c-2.993,0-5.611,1.311-7.482,3.182
		c-2.432-2.059-5.425-3.554-8.791-3.554h-0.375h-1.683C805.31,361.634,805.31,357.332,805.496,352.843 M810.733,354.525l3.742,8.979
		l3.554-8.979c0,0-5.425-28.057,2.244-36.848C811.108,323.289,810.733,354.525,810.733,354.525 M626.402,272.933
		c-2.114,1.833-3.242,2.81-3.242,2.81l0.319,0.384l0.319,0.385c0,0,0.258-0.205,0.736-0.584c0.281-0.053,0.61-0.116,0.997-0.189
		c1.334-0.268,3.297-0.629,5.771-1.152c2.464-0.566,5.51-1.018,8.974-1.627c1.732-0.295,3.575-0.609,5.518-0.94
		c1.952-0.276,4.004-0.565,6.146-0.867c4.266-0.674,8.928-1.126,13.835-1.714c2.449-0.322,4.984-0.513,7.572-0.718
		c2.588-0.189,5.221-0.482,7.908-0.673c5.386-0.279,10.932-0.744,16.59-0.872c2.826-0.082,5.673-0.247,8.534-0.271
		c2.861-0.03,5.733-0.061,8.606-0.091c1.436-0.041,2.872-0.022,4.306,0.007c1.436,0.021,2.868,0.043,4.3,0.065
		c1.431,0.017,2.857,0.034,4.281,0.051c1.426-0.007,2.842,0.098,4.254,0.142c2.826,0.106,5.631,0.211,8.4,0.315
		c2.767,0.178,5.499,0.354,8.188,0.526c1.345,0.085,2.679,0.17,4,0.253c1.316,0.12,2.621,0.239,3.912,0.357
		c2.585,0.227,5.115,0.45,7.577,0.667c2.451,0.298,4.833,0.614,7.147,0.871c1.156,0.13,2.295,0.258,3.411,0.383
		c1.115,0.133,2.199,0.324,3.269,0.478c4.26,0.68,8.212,1.148,11.64,1.849c1.727,0.313,3.339,0.625,4.844,0.876
		c0.75,0.134,1.474,0.244,2.159,0.384c0.685,0.152,1.338,0.297,1.957,0.435c2.474,0.56,4.433,0.949,5.762,1.237
		c1.334,0.272,2.045,0.417,2.045,0.417s-0.68-0.256-1.952-0.737c-1.278-0.465-3.144-1.18-5.535-2.024
		c-0.597-0.214-1.226-0.439-1.886-0.675c-0.664-0.225-1.372-0.426-2.105-0.654c-1.465-0.456-3.063-0.91-4.769-1.415
		c-3.403-1.077-7.299-1.965-11.558-2.967c-1.064-0.243-2.147-0.526-3.261-0.751c-1.116-0.218-2.252-0.44-3.407-0.666
		c-2.313-0.454-4.714-0.874-7.179-1.333c-2.478-0.366-5.023-0.741-7.626-1.125c-1.303-0.187-2.62-0.375-3.949-0.565
		c-1.335-0.14-2.683-0.282-4.042-0.424c-2.718-0.284-5.483-0.566-8.286-0.819c-2.809-0.175-5.649-0.352-8.515-0.53
		c-2.865-0.2-5.757-0.274-8.661-0.326c-1.452-0.031-2.906-0.061-4.362-0.092c-1.457-0.037-2.915-0.065-4.373-0.033
		c-2.915,0.048-5.831,0.095-8.735,0.142c-1.452,0.004-2.9,0.084-4.343,0.166c-1.443,0.078-2.882,0.155-4.315,0.233
		c-1.433,0.077-2.859,0.155-4.279,0.231c-1.422,0.067-2.828,0.243-4.229,0.358c-2.801,0.265-5.567,0.526-8.288,0.783
		c-2.714,0.322-5.379,0.681-7.982,1.049c-2.605,0.362-5.153,0.707-7.616,1.178c-2.466,0.44-4.863,0.868-7.183,1.281
		c-0.578,0.111-1.151,0.22-1.72,0.328c-0.565,0.129-1.125,0.256-1.68,0.382c-1.108,0.252-2.196,0.499-3.263,0.741
		c-2.128,0.488-4.167,0.955-6.105,1.4c-1.918,0.536-3.737,1.045-5.446,1.523c-1.706,0.487-3.305,0.92-4.773,1.361
		c-1.478,0.404-2.796,0.928-4.005,1.319c-2.409,0.814-4.285,1.504-5.568,1.952c-0.171,0.061-0.329,0.119-0.479,0.173
		c0.549-0.435,1.278-1.012,2.2-1.742c2.229-1.656,5.483-4.126,9.87-6.911c4.371-2.799,9.839-5.947,16.341-9.084
		c3.246-1.576,6.757-3.136,10.517-4.636c3.755-1.508,7.748-2.984,11.971-4.355c8.439-2.765,17.759-5.206,27.735-7.29
		c9.976-2.091,20.594-3.855,31.643-5.623c5.613-0.888,11.328-2.105,16.998-3.792c5.671-1.683,11.33-3.821,16.774-6.642
		c5.438-2.813,10.698-6.281,15.33-10.665c4.622-4.361,8.604-9.702,11.125-15.804c2.545-6.082,3.59-12.805,3.187-19.302
		c-0.04-0.813-0.115-1.622-0.199-2.428l-0.148-1.266l-0.157-1.101c-0.262-1.659-0.598-3.265-1.019-4.846
		c-0.843-3.173-2.055-6.279-3.63-9.198c-3.141-5.854-7.801-10.831-13.113-14.46c-2.658-1.821-5.466-3.341-8.338-4.596
		c-2.882-1.234-5.827-2.201-8.789-2.942c-2.963-0.752-5.953-1.214-8.931-1.494c-2.979-0.265-5.952-0.357-8.911-0.153
		c-2.933,0.185-5.971,0.638-8.812,1.376c-2.847,0.721-5.542,1.719-8.103,2.875c-5.115,2.319-9.71,5.291-13.697,8.761
		c-3.968,3.486-7.289,7.536-9.672,11.981c-1.186,2.222-2.127,4.543-2.769,6.907c-0.626,2.368-0.938,4.773-0.952,7.11
		c-0.008,1.168,0.053,2.321,0.192,3.445c0.073,0.576,0.138,1.083,0.258,1.698c0.054,0.26,0.079,0.436,0.157,0.763l0.215,0.901
		c0.605,2.206,1.538,4.272,2.759,6.016c2.421,3.533,5.582,5.835,8.536,7.474c2.99,1.63,5.89,2.592,8.5,3.316
		c2.616,0.72,4.984,1.116,7.039,1.392c2.057,0.273,3.808,0.411,5.23,0.47c1.421,0.062,2.509,0.074,3.243,0.06
		c0.739-0.022,1.12-0.033,1.12-0.033l0.039-0.998c0,0-0.361-0.059-1.064-0.174c-0.706-0.126-1.754-0.312-3.107-0.614
		c-2.694-0.609-6.663-1.586-11.324-3.534c-2.316-0.98-4.797-2.245-7.162-3.934c-2.355-1.676-4.603-3.834-6.005-6.53
		c-0.707-1.34-1.207-2.798-1.481-4.351l-0.073-0.525c-0.027-0.147-0.05-0.459-0.076-0.682c-0.036-0.352-0.056-0.83-0.067-1.242
		c-0.027-0.856,0.011-1.721,0.099-2.589c0.176-1.737,0.571-3.49,1.207-5.215c0.612-1.732,1.446-3.446,2.491-5.103
		c2.08-3.325,5.015-6.384,8.448-9.076c3.428-2.704,7.419-5.018,11.736-6.723c2.159-0.851,4.399-1.538,6.663-2.067
		c2.271-0.521,4.532-0.796,6.976-0.888c4.843-0.196,9.916,0.288,14.859,1.453c2.473,0.576,4.916,1.339,7.274,2.302
		c2.365,0.941,4.651,2.087,6.791,3.45c4.289,2.707,8.002,6.296,10.628,10.697c1.313,2.194,2.39,4.569,3.151,7.09
		c0.387,1.264,0.705,2.55,0.957,3.812l0.198,1.094l0.146,0.941c0.093,0.667,0.182,1.336,0.238,2.005
		c0.514,5.347-0.088,10.759-2.027,15.752c-1.898,5.006-5.052,9.565-8.952,13.464c-3.898,3.914-8.521,7.182-13.433,9.903
		c-9.869,5.437-20.778,8.79-31.547,10.881c-10.984,2.129-21.654,4.247-31.668,6.773c-10.018,2.495-19.388,5.335-27.851,8.47
		c-4.235,1.556-8.235,3.21-11.989,4.888c-3.759,1.669-7.263,3.389-10.496,5.113c-6.484,3.422-11.885,6.852-16.173,9.886
		C631.762,268.512,628.585,271.154,626.402,272.933 M786.337,498.525l25.154,5.527l-25.154,5.524l99.943-5.524L786.337,498.525z
		 M807.929,373.979c1.87,3.554-0.562,6.92-4.115,6.733c-4.302-0.187-5.986-4.863-3.929-8.043c1.31-2.244,3.929-3.554,6.733-3.554
		c3.367,0,6.173,2.058,7.296,4.863c1.684-2.993,5.051-5.051,8.79-5.238c3.742-0.187,7.296,1.496,9.166,4.489
		c2.806,4.49,0.936,10.662-4.862,11.036c-5.052,0.374-8.23-3.928-5.8-8.978c-5.05,2.992-3.739,9.352,0,12.157
		c0.936,0.748,3.367,1.87,3.367,5.8v5.424c0.374,3.18,0.935,6.547,1.871,9.727c0.374,1.684,0.935,3.367,1.496,5.05
		c0.561,1.496,1.309,3.181,2.432,4.864c1.122,1.87,2.807,3.74,5.052,5.237c9.726,6.173,21.51-1.311,22.819-13.468v-2.432
		c-0.188-1.123-0.748-4.677-5.237-6.922c-2.807-1.496-2.433-10.848,0-10.848h5.237h18.704h5.238c2.431,0,2.993,9.352,0,10.848
		c-4.49,2.432-5.051,5.799-5.238,6.922c-0.374,6.36-1.496,10.287-5.799,15.338c-2.244,2.806-5.236,5.237-8.417,6.734
		c-3.366,1.683-6.92,3.179-10.474,3.554c-8.045,0.748-11.972,0.748-20.016,0c-3.554-0.375-6.92-1.871-10.288-3.554
		c-3.366-1.497-6.358-3.929-8.603-6.734c-2.245-2.806-3.741-5.611-4.864-8.418c-1.871-4.302-2.431-8.417-2.806-12.719v-13.467
		c0,0,0-2.62,2.619-4.864C810.921,381.274,812.417,376.598,807.929,373.979 M818.59,401.476c0-0.935,0.188-1.87,0.188-2.619
		l-6.547,6.734c0.187,0.561,0.374,1.122,0.561,1.683L818.59,401.476z M814.101,410.455l4.677-4.678
		c-0.188-0.748-0.188-1.497-0.188-2.245l-5.236,5.238C813.539,409.332,813.727,409.893,814.101,410.455 M815.41,413.446l3.928-3.928
		c-0.188-0.561-0.373-1.309-0.373-2.057l-4.303,4.302C814.849,412.324,815.224,412.886,815.41,413.446 M822.331,421.489
		c0.562,0.375,0.936,0.562,1.31,0.937c-0.188-0.562-0.374-0.937-0.562-1.497L822.331,421.489z M820.086,419.619
		c0.374,0.374,0.748,0.748,1.31,1.122l0.936-1.122c-0.188-0.561-0.375-1.123-0.561-1.684L820.086,419.619z M818.029,417.188
		c0.373,0.562,0.748,0.936,1.121,1.309l2.058-2.057c-0.186-0.561-0.374-1.122-0.561-1.871L818.029,417.188z M820.086,413.072
		c-0.187-0.561-0.374-1.309-0.374-1.87l-3.554,3.366c0.374,0.562,0.748,1.122,0.936,1.497L820.086,413.072z M819.338,393.993
		l-8.044,8.043c0.188,0.748,0.188,1.311,0.375,2.059l7.669-7.67c0.188-1.496,0.562-2.245,0.562-2.245
		C819.712,394.18,819.525,393.993,819.338,393.993 M817.094,391.937l-6.547,6.359c0.187,0.749,0.187,1.497,0.374,2.245l7.296-7.482
		C817.842,392.685,817.469,392.31,817.094,391.937 M812.417,390.253l2.245-2.245c-0.562-1.496-0.748-2.807-0.748-2.807
		C813.727,386.324,813.165,388.194,812.417,390.253 M810.36,396.611l5.798-5.798c-0.374-0.374-0.748-0.935-0.935-1.497l-4.863,4.863
		V396.611z M627.876,466.598c-0.019-0.038-0.032-0.082-0.051-0.122C627.794,466.513,627.876,466.598,627.876,466.598
		 M130.444,303.087h35.54c2.245,0,0.935,5.611,2.805,11.224l17.957,42.273l17.771-42.273c1.87-5.612,0.748-11.224,2.993-11.224
		h29.367c2.431,0,2.992,9.54,0,11.037c-4.677,2.431-5.238,5.984-5.238,6.92v45.08h-1.309h-0.561
		c-3.367,0.187-6.359,1.495-8.791,3.74c-1.87-2.058-4.677-3.368-7.483-3.368c-0.373,0-0.561,0.188-0.747,0.188v-39.654
		c-0.375,0-1.871-0.374-3.929,3.929l-23.755,56.114h-5.985l-24.504-57.611v36.663h-1.309h-0.562c-3.181,0.187-6.36,1.495-8.604,3.74
		c-2.057-2.058-4.677-3.368-7.669-3.368c-0.187,0-0.562,0.188-0.748,0.188v-45.64c0-1.122-0.563-4.489-5.238-6.92
		C127.639,312.627,128.012,303.087,130.444,303.087 M218.732,354.525l3.554,8.979l3.741-8.979l-3.741-36.475L218.732,354.525z
		 M141.294,354.525l3.741,8.979l3.554-8.979l-3.554-36.475L141.294,354.525z M252.561,503.526c-0.248-1.423-1.484-2.507-2.979-2.507
		c-1.132,0-2.106,0.627-2.628,1.545c-0.62-1.846-2.363-3.178-4.42-3.178c-2.018,0-3.734,1.285-4.383,3.081l-8.36-3.942
		l-23.159,5.527l23.159,5.524l8.36-3.939c0.649,1.795,2.364,3.081,4.383,3.081c2.057,0,3.8-1.332,4.42-3.18
		c0.522,0.919,1.496,1.546,2.628,1.546c1.495,0,2.731-1.084,2.979-2.508l11.338,2.906l19.562-3.431l-19.562-3.431L252.561,503.526z
		 M117.539,448.986c-10.475-0.375-21.511-0.187-30.489-6.733c-2.993-2.245-5.799-5.052-7.856-8.417
		c-4.302-6.547-6.173-14.777-5.238-22.447c0.375-3.927,1.497-7.669,3.18-11.223c1.87-3.555,4.115-6.733,7.108-9.353
		c2.806-2.619,6.173-4.489,9.539-5.799c3.554-1.496,7.108-2.057,10.476-2.244c3.74-0.187,7.481,0.374,11.035,1.87
		c3.18,1.684,5.986,3.742,8.044,6.173c2.057,2.433,3.553,5.238,4.489,8.043c0.935,2.806,1.309,5.612,0.935,8.417
		c-0.374,2.619-1.31,5.051-2.431,6.921c-1.31,1.871-2.806,3.181-4.115,4.116c-1.497,0.934-2.807,1.683-3.929,2.057
		c-1.122,0.374-2.057,0.562-2.806,0.748c-1.683,0.188-2.432,0-2.618-0.374c-0.187-0.187,0.374-0.935,1.122-2.058
		c0.935-1.121,2.245-2.805,2.993-4.863c0.374-1.122,0.748-2.244,0.748-3.365c0.187-1.123,0-2.245-0.187-3.368
		c-0.374-1.122-0.748-2.244-1.497-3.555c-3.927-6.546-11.41-8.417-18.518-6.732c-2.244,0.373-4.489,1.309-6.547,2.618
		c-2.057,1.309-3.927,3.18-5.611,5.425c-1.496,2.244-2.618,5.05-3.367,7.855c-0.748,2.992-1.121,6.173-0.935,9.353
		c0.187,3.18,0.748,6.547,2.057,9.727c1.312,2.993,3.368,5.799,5.799,8.043c7.67,6.734,18.705,6.734,27.871,3.929
		c2.993-0.936,5.611-2.244,7.856-3.929c2.244-1.683,3.741-3.554,5.05-5.236c1.122-1.685,1.684-3.367,2.432-5.051
		c5.051-12.906,3.554-27.31,3.554-40.965c0,0,0-2.618,2.619-4.862c2.618-2.245,4.114-6.922-0.374-9.727
		c1.87,3.741-0.375,6.92-4.116,6.92c-4.302-0.187-5.985-4.863-3.928-8.229c1.31-2.244,3.928-3.554,6.734-3.554
		c3.367,0,6.173,2.058,7.295,5.051c1.87-3.181,5.05-5.238,8.792-5.238c3.927-0.188,7.481,1.497,9.352,4.49
		c2.806,4.302,0.935,10.662-5.05,11.034c-4.863,0.375-8.231-4.114-5.612-8.978c-5.237,2.993-3.741,9.353,0,12.159
		c0.935,0.748,3.18,1.87,3.18,5.798v16.834c0,7.296,0,13.655-2.806,20.576c-1.122,2.618-2.806,5.61-5.05,8.417
		C139.422,448.238,128.387,449.36,117.539,448.986 M145.035,423.734l-0.375,0.562l0.187,1.309L145.035,423.734z M145.969,418.496
		l-2.057,1.871l0.374,2.059l1.122-1.123L145.969,418.496z M146.718,413.26l-3.367,3.367l0.374,2.057l2.619-2.618L146.718,413.26z
		 M147.466,408.022l-4.676,4.676l0.374,2.244l3.928-4.115L147.466,408.022z M148.214,402.784l-6.172,6.174l0.373,2.058l5.425-5.425
		L148.214,402.784z M149.15,397.548l-7.669,7.481l0.373,2.244l6.735-6.92L149.15,397.548z M140.919,401.289l0.375,2.058l8.229-8.231
		v-0.936c-0.187-0.187-0.561-0.373-0.934-0.561L140.919,401.289z M140.358,397.548l0.187,2.058l6.921-6.734
		c-0.561-0.373-0.936-0.935-1.309-1.31L140.358,397.548z M142.791,388.568l1.122-1.122c-0.374-0.935-0.374-1.684-0.374-2.057
		C143.539,385.39,143.352,386.886,142.791,388.568 M139.61,393.807l0.374,2.057l5.237-5.424c-0.186-0.561-0.561-0.935-0.748-1.496
		l-3.367,3.18C140.733,392.871,140.171,393.433,139.61,393.807 M502.857,552.658c0.14,0.141,0.14,0.281,0.14,0.422
		c-0.14,0.703-0.28,0.984-0.983,0.984h-1.406c-0.423,0-0.423,0-0.704-0.421v0.281c-0.14,0-0.281,0.14-0.421,0.14h-19.828
		c-0.563,0-1.125-0.281-1.547-0.562c-0.563-0.563-1.125-1.267-1.407-1.97c-0.14-0.422-0.421-0.844-0.421-1.266
		c-0.141-0.281-0.141-0.703,0.281-0.984c-0.141-0.14-0.141-0.14-0.281-0.14c0-0.422,0.281-0.704,0.562-0.845
		c0.563-0.563,1.125-1.124,1.547-1.968c0-0.142,0.141-0.142,0.281-0.142c0.281,0,0.281-0.141,0.141-0.422
		c-0.141-0.14-0.141-0.281-0.141-0.281c0-0.28,0.141-0.562,0.141-0.703c0-0.562,0-1.125-0.281-1.687
		c-1.125-2.25-2.25-4.5-3.235-6.75c-0.843-1.547-1.546-3.094-2.25-4.5c-0.14-0.281-0.14-0.563-0.281-0.703
		c-0.14-0.281-0.281-0.422-0.422-0.704c-0.422-1.124-0.984-2.107-1.547-3.233c-0.562-1.267-1.265-2.531-1.968-3.798
		c-1.125-2.53-2.391-4.921-3.657-7.451c-0.14-0.282-0.14-0.563-0.14-0.984c0.422-1.969,0.281-3.798-0.422-5.766
		c-0.281-0.282-0.281-0.703-0.563-0.984c-1.125-1.688-2.39-3.235-4.218-4.219c-0.281,0-0.563-0.142-0.844-0.281
		c0.281-0.142,0.281-0.142,0.141-0.423c-0.141,0.141-0.141,0.141-0.141,0.423c-0.14-0.142-0.281-0.142-0.422-0.142
		c-1.265-0.422-2.531-0.563-3.797-0.563c-0.281,0-0.703,0-1.124,0.141c0.14-0.281,0.14-0.422,0.281-0.702
		c-0.422,0.14-0.563,0.421-0.422,0.702c-0.281,0-0.563,0.141-0.703,0.141c-1.266,0.281-2.391,0.844-3.375,1.547
		c0-0.14,0.14-0.281-0.141-0.421c-0.14,0.281-0.14,0.281,0.141,0.421c-0.281,0.281-0.703,0.563-0.985,0.844
		c-0.562-0.281-0.984-0.703-1.406-0.983c-0.562-0.281-0.984-0.563-1.546-0.845c-0.563-0.14-1.266-0.14-1.688-0.422
		c-0.562-0.141-1.125,0.141-1.828-0.141v-1.406c0.141-2.109,0.141-4.218,0.141-6.328c0-0.984-0.141-2.108-0.141-3.093v-18.844
		c0-0.281,0-0.563,0.281-0.703c-0.14-0.141-0.14-0.422-0.14-0.563v-2.391c0-1.125-0.141-2.391-0.985-3.375
		c0.141-0.141,0.141-0.281,0.281-0.281c-0.14-0.281-0.421-0.141-0.421-0.141c-0.423-0.281-0.704-0.563-0.985-0.985
		c0,0-0.14,0-0.14-0.14c0-0.142,0-0.142-0.141-0.142h-0.282c-0.421-0.28-0.984-0.562-1.406-0.843
		c-0.421-0.422-0.843-0.703-0.843-1.407c-0.422-0.421-0.422-0.843-0.422-1.124c-0.281-1.406-0.281-2.813,0.14-4.219
		c0-0.281,0.282-0.703,0.423-1.125c0.281-0.282,0.562-0.422,0.984-0.422h5.203h2.109c0.422,0,0.422,0,0.703,0.281h0.141
		c0.422-0.422,0.843-0.281,1.406-0.281h1.969h0.14c0,0.281,0,0.422,0.141,0.422c0.141,0,0.281-0.141,0.422-0.282
		c0.14-0.28,0.14-0.28,0.562,0c0.141,0,0.141-0.14,0.282-0.14h1.125c0.14,0,0.421,0.14,0.421,0.14c0.282-0.14,0.422-0.14,0.563-0.14
		h3.656c1.266,0,2.531,0.14,3.797,0.14c1.266,0.142,2.531,0.282,3.797,0.424c0.281,0.141,0.703,0.141,0.984,0.28
		c0.281,0,0.562,0,0.562,0.422h0.141c0,0,0.141-0.141,0.141-0.28c0.422,0,0.984,0.14,1.406,0.28c-0.14,0.141-0.14,0.141-0.281,0.141
		c0.141,0.141,0.281,0.141,0.281,0.282c0.141-0.142,0.281-0.282,0.281-0.423c0.141,0.141,0.281,0.141,0.422,0.141
		c3.234,0.844,6.188,1.969,9.141,3.515c3.656,1.969,6.891,4.643,9.281,8.157c1.265,1.828,2.109,3.656,2.812,5.625
		c0.142,0.281,0.142,0.563,0.281,0.844c0,0.141,0.142,0.281,0.282,0.563c0.421,1.547,0.703,2.954,0.844,4.5
		c0,0.422,0.141,0.703,0.141,0.984v1.124c0.141,0.422,0.141,0.703,0.141,1.126v0.984c0,0.421,0,0.843-0.141,1.125
		c0,0.984-0.141,2.109-0.281,3.093c-0.142,0-0.282,0-0.422,0.142c0,0.28,0.14,0.141,0.28,0.28
		c-1.547,8.438-6.75,14.063-14.344,17.72c0,0.14,0.141,0.28,0.141,0.421c0.844,1.688,1.688,3.376,2.391,5.063
		c0.14,0.141,0.14,0.422,0.281,0.563c0.141,0.28,0.422,0.562,0.563,0.843c0.843,1.828,1.688,3.657,2.671,5.485
		c0.142,0.28,0.142,0.562,0.282,0.843c0,0.141-0.282,0.281-0.141,0.563c0.141,0,0.28-0.141,0.422-0.141v0.141
		c0.703,1.125,1.266,2.391,1.828,3.656c0.844,1.828,1.828,3.656,2.672,5.625c0.983,1.968,1.969,3.938,2.953,5.765
		c0.844,1.97,1.828,3.938,2.813,5.906c0.281,0.704,0.843,1.267,1.266,1.688c0.141,0.14,0.28,0.28,0.422,0.421
		c-0.142,0.141-0.142,0.141-0.281,0.282v0.141c0.14-0.141,0.281-0.141,0.421-0.282c0.141,0.142,0.282,0.142,0.423,0.282
		c0.702,0.562,1.406,0.843,2.25,1.125c0.702,0.281,1.266,0.562,1.827,1.125C501.592,548.299,502.575,550.268,502.857,552.658
		 M475.294,497.395c0.844-1.407,1.688-2.954,2.25-4.641c0-0.142,0.141-0.281,0.282-0.563c-0.141-0.141,0-0.422,0.14-0.562
		c0.563-2.25,0.984-4.5,1.125-6.75c0-2.25-0.281-4.36-0.422-6.47c-0.14-0.28-0.14-0.562-0.281-0.843
		c-0.422-2.25-1.125-4.359-2.25-6.469c-0.703-1.265-1.547-2.531-2.672-3.657c-1.265-1.265-2.812-2.25-4.499-2.952
		c-2.673-0.983-5.344-1.406-8.297-1.266c-1.407,0.141-2.532,0.844-3.235,2.11c-0.281,0.562-0.422,1.124-0.703,1.687
		c0,0.281-0.14,0.421-0.14,0.703c-0.007-0.013-0.011-0.026-0.017-0.039c0.006-0.034,0.01-0.068,0.017-0.102
		c-0.035-0.035-0.07-0.07-0.108-0.105c-0.074-0.178-0.162-0.317-0.455-0.317c0.211,0.106,0.343,0.212,0.455,0.317
		c0.028,0.066,0.058,0.135,0.091,0.207c-0.122,0.669-0.138,1.332-0.405,1.867c0,0.14,0.14,0.282,0.14,0.422
		c0,1.687,0,3.375-0.14,4.922c0,2.39,0.14,4.781,0.14,7.172c0,0.141-0.14,0.421-0.14,0.702c0.14,0.141,0.14,0.422,0.14,0.704v12.937
		c0,0.563,0,1.125,0.141,1.828c0.703,2.391,2.25,4.359,4.781,5.203c1.687,0.703,3.656,0.844,5.485,0.422
		c0.843-0.14,1.827-0.563,2.671-0.844c0,0.141,0.141,0.141,0.141,0.281c0.422-0.141,0.281-0.281,0.14-0.563
		C472.061,501.473,473.888,499.645,475.294,497.395 M345.924,373.979c1.87,3.554-0.561,6.92-4.115,6.733
		c-4.302-0.187-5.986-4.863-3.928-8.043c1.309-2.244,3.928-3.554,6.734-3.554c3.366,0,6.172,2.058,7.294,4.863
		c1.684-2.993,5.05-5.051,8.792-5.238c3.741-0.187,7.295,1.496,9.165,4.489c2.806,4.49,0.936,10.662-4.863,11.036
		c-5.051,0.374-8.23-3.928-5.799-8.978c-5.05,2.992-3.741,9.352,0,12.157c0.937,0.748,3.367,1.87,3.367,5.8v5.424
		c0.374,3.18,0.935,6.547,1.871,9.727c0.374,1.684,0.935,3.367,1.496,5.05c0.561,1.496,1.31,3.181,2.431,4.864
		c1.123,1.87,2.806,3.74,5.051,5.237c9.727,6.173,21.511-1.311,22.82-13.468v-2.432c-0.187-1.123-0.748-4.677-5.237-6.922
		c-2.806-1.496-2.432-10.848,0-10.848h5.237h18.705h5.238c2.431,0,2.992,9.352,0,10.848c-4.489,2.432-5.05,5.799-5.238,6.922
		c-0.374,6.36-1.496,10.287-5.798,15.338c-2.245,2.806-5.238,5.237-8.417,6.734c-3.367,1.683-6.921,3.179-10.475,3.554
		c-8.043,0.748-11.972,0.748-20.014,0c-3.554-0.375-6.922-1.871-10.289-3.554c-3.366-1.497-6.359-3.929-8.604-6.734
		c-2.245-2.806-3.741-5.611-4.863-8.418c-1.87-4.302-2.432-8.417-2.806-12.719v-13.467c0,0,0-2.62,2.619-4.864
		S350.413,376.598,345.924,373.979 M356.586,401.476c0-0.935,0.187-1.87,0.187-2.619l-6.547,6.734
		c0.187,0.561,0.374,1.122,0.561,1.683L356.586,401.476z M352.096,410.455l4.677-4.678c-0.187-0.748-0.187-1.497-0.187-2.245
		l-5.238,5.238C351.535,409.332,351.723,409.893,352.096,410.455 M353.405,413.446l3.929-3.928
		c-0.187-0.561-0.375-1.309-0.375-2.057l-4.302,4.302C352.845,412.324,353.219,412.886,353.405,413.446 M360.327,421.489
		c0.561,0.375,0.935,0.562,1.309,0.937c-0.187-0.562-0.374-0.937-0.561-1.497L360.327,421.489z M358.083,419.619
		c0.374,0.374,0.749,0.748,1.309,1.122l0.936-1.122c-0.187-0.561-0.375-1.123-0.562-1.684L358.083,419.619z M356.025,417.188
		c0.373,0.562,0.748,0.936,1.122,1.309l2.057-2.057c-0.187-0.561-0.373-1.122-0.561-1.871L356.025,417.188z M358.083,413.072
		c-0.187-0.561-0.374-1.309-0.374-1.87l-3.554,3.366c0.374,0.562,0.748,1.122,0.935,1.497L358.083,413.072z M357.334,393.993
		l-8.043,8.043c0.187,0.748,0.187,1.311,0.373,2.059l7.67-7.67c0.187-1.496,0.561-2.245,0.561-2.245
		C357.708,394.18,357.521,393.993,357.334,393.993 M355.089,391.937l-6.547,6.359c0.188,0.749,0.188,1.497,0.375,2.245l7.294-7.482
		C355.838,392.685,355.463,392.31,355.089,391.937 M350.413,390.253l2.244-2.245c-0.561-1.496-0.748-2.807-0.748-2.807
		C351.723,386.324,351.161,388.194,350.413,390.253 M348.355,396.611l5.799-5.798c-0.374-0.374-0.749-0.935-0.935-1.497
		l-4.864,4.863V396.611z M423.122,483.754v-0.281c0-2.532-0.281-5.204-0.703-7.735c-0.422-2.671-1.266-5.062-2.531-7.452v-0.141
		c-0.141,0-0.141,0-0.141,0.141c-0.141,0-0.141-0.141-0.141-0.141l0.141-0.141l0.141-0.141c-0.703-0.844-1.266-1.828-1.828-2.673
		c0-0.14-0.141-0.281-0.281-0.14c0,0-0.141-0.142,0-0.142c0-0.14,0-0.28-0.141-0.28c-0.984-1.406-2.109-2.531-3.375-3.516
		c-0.984-0.844-1.969-1.406-3.094-1.969c-1.265-0.563-2.531-1.125-3.796-1.687c-1.407-0.563-2.813-0.984-4.36-1.125
		c-0.984-0.142-1.969-0.282-2.953-0.282c-1.969-0.142-12.375-0.281-13.219,0.423c-0.281,0-0.703,0.14-0.984,0.14v0.142
		c0,0,0,0.14-0.141,0.28c0-0.141-0.14-0.28-0.14-0.28l-0.141,0.14h-0.14h-0.422c-1.969,0.563-3.797,1.547-5.625,2.391
		c-3.094,1.688-5.906,4.5-7.453,7.313c-0.422,0.843-0.985,1.688-1.406,2.672c-0.563,0.984-0.844,2.109-0.985,3.234
		c-0.562,2.391-0.844,4.78-0.984,7.172c-0.281,2.672-0.422,5.343-0.563,8.015c-0.14,2.813-0.14,5.767-0.14,8.578v0.422v0.282v4.921
		v1.547c1.265,0,2.39,0,3.656,0.422c1.125,0.422,2.109,1.125,3.094,1.97c1.968-1.828,4.359-2.813,7.172-2.813
		c-0.141-5.765-0.282-11.39,0.14-17.155c-0.14,0-0.281,0-0.281-0.141c0.281-0.141,0.281-0.563,0.281-0.844
		c0.141-0.281,0.141-0.422,0.141-0.703c0,0,0-0.142-0.141-0.142c-0.14-0.14,0-0.14,0-0.28c0.141-0.141,0.141-0.141,0.141-0.281
		c0.281-1.266,0.421-2.391,0.562-3.656c0-0.282,0.141-0.563,0-0.844v-0.14l0.141-0.143c0.141-0.281,0.141-0.562,0.141-0.843
		c-0.141-0.141-0.282-0.281-0.423-0.281c0.141-0.282,0.141-0.422,0.282-0.563l0.281,0.28c0.141-0.421,0.141-0.844,0.281-1.265
		c0.281-0.984,0.422-1.829,0.703-2.672c0.422-1.125,0.844-2.25,1.266-3.234c0.281-0.704,0.703-1.406,1.125-2.109v-0.422
		c0,0,0.281,0,0.281-0.142c1.547-2.39,3.656-4.077,6.047-5.483c1.687-0.844,3.375-0.984,5.203-0.141
		c1.547,0.843,2.953,1.828,4.359,3.093c0.563,0.563,1.125,1.126,1.547,1.829c0.844,0.984,6.328,13.78,4.641,13.78
		c0.14,0.422,0.14,0.985,0.281,1.407c0,0.562,0.141,0.983,0.141,1.547c0.14,0,0.421-0.141,0.421,0.141
		c-0.421,3.374,0.141,16.313-0.14,18.702c0,0.142,0.14,0.281,0,0.281v0.844c0.422,0,0.984,0,1.406,0.141
		c0.422,0,0.844,0,1.266,0.142c0.422,0.14,0.843,0.281,1.124,0.562c0.423,0.142,0.844,0.423,1.266,0.703
		c0.282,0.281,0.703,0.563,0.984,0.845c2.25-1.97,4.922-2.954,8.016-2.673v-0.281v-18.28v-0.282
		C422.981,484.034,422.841,483.895,423.122,483.754 M284.944,310.757c2.432-1.871-0.934-7.67-3.554-7.67h-5.797H254.83h-3.928
		c-2.432,0,1.496,9.914,4.863,9.914c2.244,0,3.554,0.748,4.489,1.495l24.317,50.879l10.662-21.512l-12.72-26.561
		C282.326,316.555,281.578,313.563,284.944,310.757 M383.13,275.743c0,0-1.127-0.977-3.242-2.81
		c-2.182-1.779-5.359-4.421-9.664-7.431c-4.289-3.034-9.69-6.464-16.173-9.886c-3.234-1.724-6.738-3.444-10.496-5.113
		c-3.755-1.678-7.754-3.332-11.99-4.888c-8.463-3.135-17.833-5.975-27.851-8.47c-10.012-2.526-20.683-4.644-31.667-6.773
		c-10.768-2.091-21.678-5.444-31.548-10.881c-4.911-2.721-9.534-5.989-13.432-9.903c-3.9-3.899-7.054-8.458-8.952-13.464
		c-1.94-4.993-2.54-10.405-2.027-15.752c0.057-0.669,0.145-1.338,0.239-2.005l0.144-0.941l0.199-1.094
		c0.252-1.262,0.569-2.548,0.957-3.812c0.762-2.521,1.837-4.896,3.152-7.09c2.626-4.401,6.338-7.99,10.627-10.697
		c2.14-1.363,4.425-2.509,6.792-3.45c2.358-0.963,4.8-1.726,7.274-2.302c4.942-1.165,10.017-1.649,14.859-1.453
		c2.444,0.092,4.705,0.367,6.975,0.888c2.265,0.529,4.505,1.216,6.663,2.067c4.318,1.705,8.309,4.019,11.737,6.723
		c3.434,2.692,6.368,5.751,8.449,9.076c1.044,1.657,1.879,3.371,2.491,5.103c0.636,1.725,1.031,3.478,1.207,5.215
		c0.087,0.868,0.125,1.733,0.099,2.589c-0.013,0.412-0.032,0.89-0.069,1.242c-0.025,0.223-0.049,0.535-0.076,0.682l-0.073,0.525
		c-0.275,1.553-0.774,3.011-1.482,4.351c-1.402,2.696-3.648,4.854-6.005,6.53c-2.365,1.689-4.844,2.954-7.161,3.934
		c-4.662,1.948-8.631,2.925-11.325,3.534c-1.352,0.302-2.401,0.488-3.106,0.614c-0.703,0.115-1.066,0.174-1.066,0.174l0.039,0.998
		c0,0,0.382,0.011,1.121,0.033c0.735,0.014,1.823,0.002,3.244-0.06c1.421-0.059,3.173-0.197,5.229-0.47
		c2.056-0.276,4.424-0.672,7.039-1.392c2.611-0.724,5.51-1.686,8.501-3.316c2.954-1.639,6.114-3.941,8.535-7.474
		c1.222-1.744,2.153-3.81,2.76-6.016l0.214-0.901c0.078-0.327,0.103-0.503,0.158-0.763c0.119-0.615,0.184-1.122,0.257-1.698
		c0.14-1.124,0.2-2.277,0.193-3.445c-0.015-2.337-0.326-4.742-0.953-7.11c-0.641-2.364-1.583-4.685-2.769-6.907
		c-2.382-4.445-5.703-8.495-9.671-11.981c-3.987-3.47-8.581-6.442-13.698-8.761c-2.56-1.156-5.254-2.154-8.102-2.875
		c-2.84-0.738-5.879-1.191-8.812-1.376c-2.958-0.204-5.932-0.112-8.91,0.153c-2.977,0.28-5.969,0.742-8.93,1.494
		c-2.963,0.741-5.908,1.708-8.791,2.942c-2.872,1.255-5.678,2.775-8.337,4.596c-5.312,3.629-9.972,8.606-13.114,14.46
		c-1.574,2.919-2.787,6.025-3.629,9.198c-0.421,1.581-0.756,3.187-1.018,4.846l-0.157,1.101l-0.15,1.266
		c-0.083,0.806-0.158,1.615-0.198,2.428c-0.403,6.497,0.64,13.22,3.187,19.302c2.52,6.102,6.501,11.443,11.124,15.804
		c4.631,4.384,9.892,7.852,15.33,10.665c5.444,2.821,11.103,4.959,16.775,6.642c5.669,1.687,11.384,2.904,16.998,3.792
		c11.049,1.768,21.666,3.532,31.643,5.623c9.975,2.084,19.295,4.525,27.734,7.29c4.224,1.371,8.216,2.847,11.971,4.355
		c3.759,1.5,7.27,3.06,10.517,4.636c6.501,3.137,11.969,6.285,16.341,9.084c4.386,2.785,7.641,5.255,9.87,6.911
		c0.921,0.73,1.65,1.307,2.2,1.742c0.968,0.35,1.482,0.536,1.482,0.536L383.13,275.743z M492.943,366.496
		c0.374-12.719,0.749-25.812-2.244-37.97c-0.375-1.684-0.936-3.368-1.497-5.051c-0.748-1.496-1.309-3.18-2.619-4.863
		c-1.122-1.871-2.618-3.554-4.862-5.237c-5.612-4.114-8.23-4.114-13.841,0c-2.058,1.684-3.742,3.366-4.864,5.237
		c-1.122,1.684-1.871,3.367-2.432,4.863c-0.748,1.683-1.309,3.367-1.683,5.051c-2.992,12.345-2.806,24.877-2.431,37.409h-0.375
		h-0.561c-3.367,0.188-6.36,1.497-8.604,3.742c-2.058-2.059-4.676-3.182-7.482-3.182h-1.496
		c-0.188-14.027,0.187-35.352,2.993-44.144c0.934-2.805,2.805-5.611,5.049-8.417c2.058-2.618,5.05-5.237,8.418-6.732
		c3.367-1.685,6.921-3.181,10.475-3.555c8.043-0.748,11.783-0.748,20.014,0c3.367,0.374,6.921,1.87,10.287,3.555
		c3.368,1.495,6.359,4.114,8.604,6.732c2.244,2.806,3.741,5.612,4.864,8.417c2.057,4.864,2.618,9.914,2.992,15.152
		c0.187,4.488,0,8.978,0,13.467v14.964h-1.497h-0.562c-3.179,0.188-6.172,1.497-8.604,3.742c-1.87-2.059-4.489-3.182-7.482-3.182
		H492.943z M497.246,317.489c7.668,8.792,2.058,36.85,2.058,36.85l3.739,8.979l3.555-8.979
		C506.598,354.339,506.411,323.102,497.246,317.489 M452.728,317.489c-9.165,5.612-9.352,36.85-9.352,36.85l3.554,8.979l3.741-8.979
		C450.67,354.339,445.059,326.281,452.728,317.489 M602.926,340.685v55.554c0,25.251-21.696,37.598-46.949,37.598h-24.129
		c-2.432,0-2.993-9.354,0-11.037c4.489-2.244,5.237-5.611,5.237-6.733v-27.497c0,0,0-2.618,2.618-4.862
		c2.619-2.245,4.115-6.922-0.561-9.727c2.058,3.741-0.374,6.92-3.928,6.92c-4.489-0.187-5.985-4.863-3.929-8.229
		c1.31-2.244,3.929-3.554,6.734-3.554c3.367,0,6.173,2.058,7.295,5.051c1.871-3.181,5.05-5.238,8.791-5.426
		c3.928,0,7.481,1.685,9.353,4.678c2.807,4.302,0.936,10.662-5.05,11.034c-4.864,0.375-8.23-4.114-5.612-8.978
		c-5.237,2.993-3.74,9.353,0,12.159c0.936,0.748,3.18,1.87,3.18,5.798v21.697c0.749,6.734,2.806,8.792,7.107,8.792
		c15.9,0,21.324-10.85,21.699-26.749c0-7.439,0.139-51.363,0.177-57.443c-0.601-15.786-6.045-26.542-21.688-26.542
		c-4.49,0-6.734,2.245-7.296,9.54v43.396h-1.31h-0.561c-3.181,0-6.359,1.495-8.604,3.74c-2.058-2.058-4.676-3.368-7.669-3.368
		c-0.187,0-0.561,0-0.748,0.188v-45.64c0-1.122-0.561-4.489-5.237-6.92c-2.993-1.497-2.432-11.037,0-11.037h23.567h0.562
		C581.416,303.087,602.926,315.433,602.926,340.685 M549.991,354.339l-3.553-36.288l-3.742,36.288l3.742,9.166L549.991,354.339z
		 M544.754,388.568l1.122-1.122c-0.187-0.935-0.374-1.684-0.187-2.057C545.689,385.39,545.315,386.886,544.754,388.568
		 M542.136,395.863l5.236-5.424c-0.374-0.374-0.561-0.935-0.934-1.496l-3.181,3.366c-0.373,0.562-0.936,1.123-1.496,1.497
		L542.136,395.863z M542.696,399.605l6.921-6.734c-0.561-0.373-0.935-0.935-1.309-1.31l-5.986,5.986L542.696,399.605z
		 M547.187,423.734l-0.563,0.562l0.374,1.496L547.187,423.734z M547.935,418.496l-1.871,2.059l0.375,2.058l1.121-1.123
		L547.935,418.496z M548.869,413.26l-3.367,3.367l0.374,2.057l2.433-2.431L548.869,413.26z M549.617,408.022l-4.863,4.863
		l0.374,2.057l4.115-3.927L549.617,408.022z M550.365,402.784l-6.172,6.174l0.373,2.058l5.425-5.238L550.365,402.784z
		 M551.113,397.548l-7.48,7.669l0.372,2.057l6.735-6.732L551.113,397.548z M551.674,394.18c-0.373-0.187-0.561-0.373-0.934-0.561
		l-7.67,7.67l0.188,2.243l8.23-8.229L551.674,394.18z M425.091,505.69c-2.813-1.125-5.485-0.844-8.016,0.985
		c-0.703,0.562-1.406,1.265-1.828,2.108l-0.141,0.141c-0.14,0-0.14-0.141-0.14-0.141c-1.406-2.672-3.797-3.938-6.609-3.375
		c-1.828,0.423-3.234,1.406-4.078,3.095c-0.703,1.546-0.422,3.374,0.703,4.5c0.843,0.843,1.968,1.124,3.234,0.983
		c1.828-0.141,3.094-1.829,2.672-3.655c0-0.423-0.281-0.845-0.422-1.267c0.281,0.142,0.422,0.281,0.703,0.422
		c1.406,1.125,1.828,2.813,1.266,4.5c-0.422,0.703-0.844,1.406-1.406,1.97c-0.282,0.421-0.844,0.701-0.844,1.124
		c0,0-0.141,0-0.141,0.141c0,0-0.14,0-0.14,0.141c-0.422,0.563-0.844,1.125-0.844,1.827c-0.141,0.704-0.141,1.548-0.141,2.25v0.423
		c0,0.281,0.141,0.703,0.141,0.984v1.406h0.281c0,0,0,0.141-0.141,0.141h-0.14c-0.141,0.844-0.141,1.546-0.141,2.391
		c-0.14,0.141,0,0.281,0,0.422c-0.14,0.141-0.422,1.828-0.281,1.969c-0.141,0.141-0.141,0.281-0.141,0.422
		c-0.422,2.39-1.687,7.735-2.812,10.266c-0.703,2.109-2.531,4.077-3.938,5.484c-1.406,1.125-2.671,2.109-4.218,2.812
		c0.281,0,0.281,0.141,0.281,0.281c-0.141,0-0.141,0.142-0.281,0.142l-0.141-0.142v-0.281c-0.422,0.141-0.844,0.141-0.984,0.704
		c-0.141-0.423-0.422-0.281-0.703-0.281h-0.563c-0.141,0-0.281-0.142-0.422,0.141c0,0-0.14,0-0.281,0.141v-0.423
		c-0.422-0.141-0.844-0.141-1.266-0.422c-3.234-1.546-5.906-3.796-7.453-7.031c-0.14-0.14-0.14-0.28-0.421-0.28
		c0,0-0.141-0.141-0.282-0.141c0-0.141,0.141-0.141,0.141-0.141s0.141,0,0.281-0.142c-0.14-0.14-0.281-0.28-0.422-0.28v-0.422
		c-0.422-1.125-0.843-2.109-1.125-3.234c-0.14-0.141-0.14-0.141-0.281-0.281c0,0,0.141-0.141,0.141-0.282
		c-0.563-2.108-0.984-4.218-1.407-6.327c-0.14-0.703-0.281-1.406-0.281-2.109v-4.078c0-1.265-0.421-2.531-1.406-3.375
		c-0.281-0.281-0.563-0.422-0.844-0.562c-1.828-1.548-2.953-3.375-2.671-5.907c0,0,0-0.141-0.141-0.141
		c-0.141-0.141-0.141-0.28,0-0.28c0.281-0.142,0.281-0.423,0.422-0.563c0.14-0.422,0.421-0.844,0.703-1.125
		c0.422-0.562,0.843-0.983,1.547-1.406c-0.563,1.266-0.844,2.391-0.563,3.656c0.282,1.267,1.125,2.109,2.25,2.672
		c0.141,0,0.141-0.141,0.141-0.141c0.141,0,0.141,0.141,0.281,0.141c0,0.141,0,0.281,0.141,0.281
		c1.687,0.422,3.234,0.281,4.64-0.703c1.266-0.843,1.828-2.108,1.969-3.657c0.141-1.404-0.141-2.671-0.984-3.796
		c-0.422-0.703-0.985-1.125-1.548-1.687c-0.702-0.422-1.265-0.844-1.968-0.985c-0.703-0.281-1.547-0.422-2.25-0.563
		s-1.406-0.141-2.25,0c-1.265,0.281-2.39,0.704-3.375,1.548c-0.844,0.562-1.406,1.265-1.969,2.108l-0.14,0.141
		c-0.141-0.281-0.422-0.563-0.563-0.844c0.141,0.281-0.14,0.423-0.281,0.563c0-0.421,0-0.563,0.281-0.703
		c-0.281-0.563-0.843-0.983-1.265-1.406c-1.407-0.984-2.953-1.406-4.641-1.125c-1.687,0.281-3.094,1.125-4.078,2.672
		c-0.703,1.406-0.844,2.673-0.141,4.077c0.704,1.407,2.391,2.11,4.079,1.829c2.531-0.563,3.234-3.094,2.109-4.78v-0.282
		c0.422,0.422,0.703,0.563,1.125,0.984c0.844,0.984,1.265,2.109,0.844,3.516c-0.141,0.983-0.704,1.829-1.547,2.672
		c-0.422,0.422-0.844,0.984-1.266,1.547c-0.422,0.703-0.703,1.406-0.703,2.25v5.625v0.703v3.797v0.14c0-0.14,0-0.14,0.141-0.14
		c0,0.14,0.14,0.14,0.14,0.281c-0.14,0-0.14,0.14-0.281,0.14v0.142c0.141,1.266,0.281,2.531,0.422,3.655
		c0,0.422,0.14,0.703,0.281,1.126c-0.141,0.563,2.25,6.891,2.813,7.313c0.14,0.281,0.14,0.422,0.421,0.562
		c0.141,0.142,0.141,0.281,0.141,0.422c0.703,0.985,1.406,1.828,2.109,2.813c0.282,0.281,0.563,0.562,0.704,0.843l0.14-0.14
		c0.141,0.14,0.141,0.281,0.141,0.281c0.281,0.28,0.562,0.562,0.844,0.843c0.14,0.141,0.281,0.141,0.421,0.141
		c0,0.142,0.141,0.282,0.281,0.423c0.563,0.421,1.125,0.844,1.688,1.124c2.953,1.688,6.187,3.094,9.562,3.657
		c1.266,0.14,2.391,0.281,3.657,0.281c1.687,0.14,3.515,0.14,5.203,0.14c1.687,0,3.234-0.14,4.921-0.281
		c1.126,0,2.25-0.14,3.235-0.562c1.828-0.423,3.515-1.266,5.203-1.969c0.14,0,0.281-0.142,0.281-0.281h0.422
		c0.422-0.282,0.984-0.563,1.406-0.844c1.266-0.845,2.391-1.688,3.375-2.672c0.844-0.703,1.406-1.548,2.11-2.25
		c0,0,0-0.142-0.141-0.142v-0.14c0.141-0.142,0.281-0.142,0.281-0.142c0,0.142,0,0.142,0.141,0.142
		c0.703-1.407,1.828-2.953,2.39-4.5c-0.14,0.141-0.14,0.141-0.281,0.141v-0.282h0.141c0,0,0,0.142,0.14,0.142v-0.142
		c0.563-1.266,1.125-2.671,1.547-4.077c0.563-2.25,0.844-4.5,0.984-6.75c0-2.109,0.141-4.359,0.141-6.469
		c0-0.983-0.422-1.829-0.984-2.391c-0.282-0.563-0.844-0.984-1.266-1.265c-1.266-0.985-2.109-1.97-2.531-3.375
		c-0.844-2.392,0-4.5,1.969-5.767h0.281c-0.141,0.282-0.281,0.563-0.422,0.844c-0.703,1.828-0.141,3.656,1.406,4.781
		c0.985,0.843,2.25,1.125,3.516,0.984c0.984,0,1.969-0.422,2.672-0.984c0.14-0.141,0.14-0.281,0.281-0.422
		c0.422-0.14,0.562-0.421,0.703-0.703c1.125-1.828,0.984-4.641-0.281-6.468C427.622,506.957,426.356,506.254,425.091,505.69
		 M390.255,303.836c3.554,0.187,7.108,1.871,10.475,3.367c3.179,1.683,14.215,10.848,14.215,20.388c0,1.122,0.749,4.49,5.238,6.921
		c2.992,1.496,2.431,10.849,0,10.849h-5.238H396.24h-5.237c-2.432,0-2.806-9.353,0-10.849c4.489-2.245,5.05-5.799,5.237-6.921
		v-2.433c-1.309-12.157-13.093-17.77-22.82-11.596c-2.245,1.309-3.928,3.366-5.051,5.05c-1.121,1.87-1.87,3.367-2.431,5.05
		c-0.561,1.684-1.122,3.367-1.496,5.051c-2.245,8.792-2.806,17.583-2.619,26.561c0,1.123,0.187,5.986,0.374,11.223h-0.561
		c-2.993,0-5.611,1.311-7.482,3.182c-2.431-2.059-5.424-3.554-8.791-3.554h-0.375h-1.683c0-4.49,0-8.792,0.187-13.281
		c0.187-9.54-0.561-22.446,2.993-30.302c1.122-2.807,2.618-5.8,4.863-8.417c2.245-2.807,5.238-5.238,8.604-6.921
		c3.367-1.496,6.735-3.181,10.289-3.367C378.283,302.9,382.212,302.9,390.255,303.836 M358.27,317.678
		c-9.166,5.611-9.539,36.848-9.539,36.848l3.741,8.979l3.554-8.979C356.025,354.525,350.601,326.469,358.27,317.678
		 M455.888,505.128c-3.093-0.141-5.484,0.984-7.312,3.516c-0.141,0-0.281,0.141-0.281,0.281c-0.985-1.968-2.531-3.234-4.781-3.516
		c-1.969-0.281-4.219,0.423-5.344,1.969c0,0.141,0.141,0.281,0.281,0.422c-0.14,0-0.281,0-0.562-0.141
		c-0.844,1.266-1.125,2.673-0.562,4.219c0.984,2.672,4.64,2.813,6.046,1.126c0.844-0.985,0.985-2.11,0.562-3.376
		c-0.14-0.141-0.14-0.281-0.281-0.421c1.125,0.562,1.829,1.405,2.11,2.671c0.281,1.126,0,2.109-0.704,3.234
		c-0.281,0.563-0.843,0.984-1.406,1.546c-0.984,0.985-1.687,2.25-1.687,3.657v19.406c0,0.141,0,0.422,0.141,0.562
		c0.14,0.142,0.14,0.282,0,0.423c0,0.141-0.141,0.422-0.141,0.562c-0.141,0.845-0.703,1.829-1.407,2.531
		c-0.562,0.845-1.406,1.407-2.249,1.829c-0.563,0.28-1.125,0.562-0.984,1.266l-0.141,0.14c-0.282,0.142-0.282,0.423-0.282,0.703
		c-0.14,0.422-0.281,0.703-0.281,1.126v1.124c0,0.281-0.14,0.703,0,1.125c0.141,0.282,0,0.703,0.141,0.984
		c0.14,0.141,0.281,0.141,0.422,0.282c-0.141,0-0.141,0-0.282,0.14c0.282,1.126,0.704,1.547,1.829,1.547h8.999
		c0.282,0,0.703,0,0.844-0.421c0.141,0.421,0.563,0.421,0.844,0.421c0.984-0.14,1.969,0,2.953,0h2.672
		c0.14-0.14,0.14-0.14,0.14-0.281c0.141,0,0.141-0.14,0.282-0.14c0,0,0,0.14,0.14,0.281v0.14c0.141-0.14,0.141-0.14,0.141-0.281
		c0.14,0.142,0.281,0.281,0.422,0.142c0.422,0,0.843,0.281,1.265-0.142c0.141,0.142,0.282,0.142,0.422,0.142
		c0.703,0.14,1.547,0.14,2.25,0h0.422c0.281-0.281,0.563-0.563,0.703-0.985c0.563-1.546,0.563-3.093,0.422-4.641
		c-0.141-0.421-0.281-0.984-0.562-1.546c-0.141-0.422-0.563-0.845-0.985-1.125c-0.984-0.563-1.828-1.266-2.531-2.11
		c-0.281-0.14-0.281-0.421-0.563-0.562h-0.14c0.14-0.423-0.141-0.844-0.281-1.125c0-0.142-0.282-0.281-0.282-0.563v-1.124v-4.922
		v-8.297c0-0.422,0-0.703-0.562-0.844c0.281-0.142,0.422-0.142,0.562-0.142c0-0.983,0-2.107-0.14-3.093
		c-0.141-1.407-0.844-2.672-2.11-3.375c-0.281-0.282-0.562-0.422-0.843-0.703c-0.985-1.125-1.688-2.391-1.828-3.937
		c-0.282-1.828,0.421-3.375,1.968-4.5c0,0,0.141-0.142,0.422-0.282c-0.14,0.563-0.422,0.984-0.422,1.407
		c-0.562,2.25,0.563,4.358,2.672,5.201c0.844,0.282,1.828,0.282,2.672,0.142c1.828-0.281,3.094-1.266,3.797-2.953
		c0.703-2.25,0.421-4.219-1.125-6.047C459.967,506.112,457.999,505.269,455.888,505.128 M359.559,455.77H335.09h-0.422v0.422
		c-0.14-0.141-0.281-0.141-0.422-0.282l-0.141-0.14h-2.812c0,0.14,0,0.14-0.14,0.14v-0.14h-0.141h-0.563h-11.39h-0.281
		c0,0.14,0,0.281-0.141,0.281c-0.14,0-0.14-0.142-0.14-0.281h-2.11c-0.281,0-0.422,0.14-0.703,0.14l-0.141-0.14h-0.14h-1.688
		c-0.422,0-0.984,0.563-0.984,1.125h0.141h0.281c-0.141,0-0.141,0.141-0.141,0.141c-0.14,0-0.281,0.141-0.422,0.141
		c0,0,0,0.141-0.14,0.282c-0.282,1.265-0.282,2.53-0.141,3.937c0.141,0.703,0.281,1.406,0.703,2.11
		c0.281,0.14,0.563,0.421,0.844,0.562c0.844,0.563,1.687,1.124,2.391,1.969c1.265,1.405,1.546,3.094,1.406,4.922v1.547
		c0.281,0.141,0.422,0.141,0.562,0.281c0,0,0,0.141-0.14,0.281c0,0.281-0.282,0.141-0.422,0.141v0.28v4.079v2.671v13.22
		c0,0.14,0.14,0.28,0.14,0.422c0,0.28-0.14,0.421-0.14,0.702v8.578v0.281c2.39-0.141,4.5,0.563,6.187,2.392
		c3.656-3.095,7.594-3.656,11.953-1.548v-0.422c0.141,0.142,0.281,0.142,0.422,0.142c-0.141,0.14-0.141,0.28-0.141,0.422
		c0.281,0.281,0.703,0.421,0.985,0.702c0.281,0.281,0.562,0.422,0.843,0.704c0,0.141,0.141,0.141,0.141,0.141h0.844
		c1.687,0.14,2.953,0.843,3.656,2.39c0.141,0.281,0.281,0.422,0.281,0.703v2.109c0,0.983,0.563,1.688,1.407,2.109
		c0.843,0.281,1.827,0.141,2.671-0.141c0.141-0.14,0.281-0.281,0.281-0.703v-0.703v-0.422c0,0,0.141-0.141,0.141-0.281
		c0-1.547,0.281-3.094,0.563-4.641c0.14-0.562,0.281-1.125,0.421-1.547c0.423-0.843,0.563-1.688,0.282-2.531
		c-0.141-0.843-0.422-1.547-0.563-2.39c-0.562-1.969-0.844-3.938-0.844-5.907c0-0.562-0.14-0.843-0.702-0.984
		c-0.423-0.14-0.985-0.14-1.548-0.14c-1.265,0.14-2.109,1.124-2.109,2.25c0.141,0.421,0,0.843,0,1.265
		c0,1.125-0.422,2.109-1.265,2.813c-0.844,0.843-1.969,1.124-3.094,1.124h-1.406c-0.844,0-1.688-0.281-2.391-0.702
		c-1.828-0.985-2.813-2.532-2.813-4.641v-5.625v-11.25v-0.422c-0.14,0,0-0.141,0-0.141v-0.141v-0.985v-3.093
		c0-0.281,0.141-0.703,0.141-0.984c0-0.423,0.141-0.844,0.282-1.266c0-0.141,0.14-0.141,0.14-0.281
		c0.422-0.983,0.844-1.969,1.687-2.672c1.547-1.688,3.376-2.531,5.766-2.672c0.281,0,0.563,0.141,0.703-0.282
		c0,0.282,0.141,0.282,0.422,0.282h4.219c0.14,0,0.281,0,0.422-0.14c0.14,0.14,0.281,0.14,0.421,0.14
		c0.844,0,1.829,0.141,2.673,0.563h0.281c0.281,0.281,0.703,0.563,0.984,0.703c0.141,0,0.141-0.141,0.281-0.141v0.281
		c0,0,0,0.141,0.141,0.141c0.14,0.14,0.281,0.281,0.422,0.421c0,0,0,0.142,0.14,0.142c0.282,0.563,0.563,0.984,0.844,1.405
		c0.14,0,0.14-0.14,0.281-0.14v0.14c0,0.142-0.141,0.142-0.281,0.142c0.281,0.562,0.563,1.125,0.563,1.828v2.391
		c0,1.688,1.406,3.516,3.796,3.234c0.141,0,0.141-0.142,0.141-0.142c0-0.281,0.14-0.281,0.281-0.421h0.282v0.281
		c0,0-0.141,0.14-0.282,0.281c0.282-0.142,0.422-0.142,0.703-0.142c-0.14,0-0.14-0.14-0.14-0.14h0.562c0.141,0,0.282,0,0.422-0.142
		c0.562-0.14,0.844-0.422,0.703-0.983c0-0.422,0-0.843,0.141-1.125v-1.125v-1.125c0.14-0.422,0.14-0.703,0.14-1.125
		c0.141-0.281,0-0.703,0.141-0.985c0.141-0.421,0.141-0.703,0.141-0.983c0.281-1.406,0.562-2.672,0.843-4.078
		c0.422-1.547,0.985-3.094,1.125-4.641c0.141-0.983,0.282-1.829,0.141-2.672C361.246,456.191,360.684,455.77,359.559,455.77
		 M294.297,369.678c-1.87-1.871-4.488-3.182-7.108-3.182l23.569-49.193c0.187-0.748,0.935-3.74-2.432-6.546
		c-2.432-1.871,0.935-7.67,3.554-7.67h5.798h20.763h3.928c2.431,0-1.496,9.914-4.863,9.914c-2.245,0-3.554,0.748-4.489,1.495
		l-25.065,52.188c-1.309-0.373-2.806-0.748-4.302-0.748h-0.561C299.722,366.124,296.729,367.433,294.297,369.678 M298.975,363.505
		l7.108-6.547l12.532-34.417l-19.079,31.236L298.975,363.505z M558.685,546.612c-0.142,0-0.282,0-0.282-0.141
		c0,0,0-0.141,0.141-0.141c-0.141-0.563-0.281-1.267-0.422-1.828c-0.141-0.141-0.141-0.422-0.422-0.422
		c0.141,0,0.141-0.142,0.281-0.142c-0.141,0-0.141-0.141-0.141-0.281c-0.422-1.969-0.844-3.937-0.983-6.046
		c0-0.984-0.142-2.109-0.142-3.094c0-0.422-0.141-0.703-0.423-0.984c-0.14,0-0.421-0.141-0.562-0.141
		c-0.563-0.141-1.124-0.281-1.688-0.141c-0.141,0.141-0.422,0-0.703,0c-0.844,0-1.547,0.281-2.109,0.844
		c0,0.281,0,0.422,0.141,0.703c-0.281-0.142-0.281-0.281-0.422-0.281c-0.422,0.563-0.562,1.125-0.562,1.828v2.25
		c-0.142,0.562-0.281,1.266-0.423,1.828c-0.14,0.141-0.14,0.281-0.28,0.422c-0.423,0.703-0.845,1.266-1.407,1.828
		c-0.843,0.703-1.688,1.124-2.813,1.406c0,0.141,0,0.422-0.28,0.422c-0.142,0.141-0.282-0.141-0.282-0.422
		c-0.563,0.141-0.984,0.141-1.546,0.141h-5.344c-1.969,0-3.798-0.704-5.345-1.969c-1.828-1.688-2.812-3.656-2.812-6.188v-1.829
		c0-0.14-0.14-0.28-0.14-0.421v-0.141c0-0.141,0.14-0.281,0.14-0.281v-2.813v-2.673v-4.358c0-1.125-0.281-2.25-0.985-3.094
		c-0.421-0.422-0.843-0.702-1.265-1.124c-1.267-0.845-2.109-1.97-2.531-3.375c-0.844-2.25-0.141-4.5,1.969-5.767l0.141-0.141
		c-0.141,0.423-0.282,0.844-0.422,1.266c-0.563,2.25,0.563,4.359,2.672,5.203c1.266,0.422,2.672,0.422,3.937-0.141
		c1.407-0.563,2.25-1.546,2.673-2.953c0.281-0.563,0.281-1.267,0.281-1.828c-0.141,0-0.281,0-0.423,0.141
		c-0.14-0.422,0.282-0.563,0.423-0.703c-0.141-0.984-0.423-1.547-0.985-2.391c-0.843-1.547-2.108-2.39-3.655-3.094
		c-1.125-0.422-2.109-0.422-3.375-0.422c-2.25,0-4.078,0.845-5.484,2.531c-0.422,0.422-0.704,0.845-0.985,1.266
		c-0.14,0-0.14-0.141-0.14-0.281c-2.11-3.937-6.469-4.218-9.141-2.25c-1.547,1.125-2.391,2.672-1.97,4.641
		c0.563,3.094,3.799,3.656,5.627,2.531c1.123-0.703,1.687-1.969,1.404-3.375c0-0.422-0.281-0.844-0.421-1.266
		c0.281,0.141,0.421,0.282,0.563,0.422c1.125,0.844,1.827,1.969,1.547,3.516c-0.141,1.266-0.703,2.25-1.547,3.095
		c-0.142,0.14-0.142,0.28-0.281,0.421h-0.142c-0.983,0.984-1.687,2.109-1.687,3.516v2.672v7.171v0.282c0.14,0,0.14,0.14,0,0.281
		v0.281v5.766v3.656c0,0.844-0.422,2.25-0.984,3.094c-0.702,0.984-1.688,1.828-2.813,2.39c-0.281,0.142-0.563,0.422-0.844,0.703
		c-0.141,0.282-0.281,0.704-0.423,0.985c-0.562,1.406-0.562,2.812-0.28,4.358c0,0.563,0.28,1.125,0.563,1.688
		c0.281,0.422,0.563,0.703,0.984,0.703h7.875c0.704,0,1.547,0.14,2.25-0.142h0.14c0.142,0,0.282,0.142,0.282,0.142h7.031h3.797
		c0.14,0,0.421,0,0.562-0.142c0.142,0,0.282,0.142,0.422,0.142h8.578h0.422h2.673v-0.142v-0.14c0,0,0.14,0,0.14,0.14
		c0,0.281,0.282,0.142,0.422,0.142l0.141-0.142c0,0,0.141,0,0.141,0.142h0.281h2.391h0.282h0.28h2.953
		c1.688,0,3.234,0.14,4.781,0.14c0.703,0,1.266-0.421,1.547-1.125c0-0.141,0.142-0.281,0.142-0.562c0.14-0.703,0.14-1.547,0-2.392
		C559.246,548.862,558.965,547.736,558.685,546.612 M557.559,455.77h-24.609h-0.281v0.422h-0.14
		c-0.141-0.141-0.281-0.282-0.422-0.422h-2.813c-0.141,0-0.141,0.14-0.141,0.14l-0.14-0.14h-12.375v0.281h-0.141v-0.281h-2.25
		c-0.28,0-0.422,0-0.562,0.14c0,0-0.142,0-0.142-0.14h-0.281h-1.406c-0.563,0-1.125,0.422-1.267,1.125
		c0.142,0,0.142-0.14,0.282-0.14h0.141v0.14c-0.141,0.141-0.423,0.141-0.563,0.281v-0.141c-0.141,0.703-0.281,1.266-0.281,1.97
		c-0.141,1.404,0,2.952,0.703,4.218c0.281,0.422,0.563,0.703,0.984,0.984c0.983,0.422,1.829,1.126,2.391,1.969
		c0.843,0.983,1.266,2.109,1.266,3.375v0.844c0,0.141,0.141,0.281,0.141,0.281l-0.141,0.141c0,0.281,0,0.421,0.141,0.703
		c0,0.14,0,0.14-0.141,0.281c0.141,0.14,0.141,0.281,0.141,0.281c-0.281,0.141-0.141,0.422-0.141,0.703
		c0.141-0.281,0.423-0.281,0.563-0.141c0.142,0.141,0,0.281,0,0.422c-0.14,0.281-0.422,0-0.563,0v0.421v19.828
		c0,0.142-0.141,0.422,0.28,0.422c0,0.142-0.14,0.281-0.14,0.422c-0.141,0.141-0.141,0.281-0.141,0.281v7.594v1.406
		c2.391-0.141,4.641,0.563,6.327,2.25c3.657-2.953,7.595-3.515,11.813-1.547c0,0,0.141-0.14,0.141-0.281
		c0.142,0.142,0.142,0.142,0.282,0.142c0,0.14,0,0.28-0.141,0.422c0.422,0.281,0.703,0.421,0.983,0.702
		c0.281,0.281,0.703,0.422,0.984,0.704c0,0.141,0.142,0.141,0.142,0.141h0.703c1.124,0,2.25,0.421,2.952,1.265
		c0.703,0.563,0.985,1.267,1.126,2.109v1.969c0,1.125,0.703,1.688,1.546,1.969c0.563,0.141,0.985,0,1.547,0
		c0.281,0,0.563-0.141,0.845-0.141c0.28-0.14,0.422-0.421,0.422-0.703v-0.703c0-0.141,0-0.28-0.142-0.422
		c0.142-0.141,0.142-0.141,0.142-0.281c0.141-1.406,0.28-2.953,0.703-4.358c0.14-0.703,0.14-1.407,0.422-1.969
		c0.28-0.984,0.421-1.829,0.14-2.813c-0.14-0.703-0.422-1.406-0.562-2.109c-0.423-1.827-0.703-3.797-0.703-5.766
		c0-0.703-0.142-0.843-0.704-0.984c-0.563-0.14-1.124-0.14-1.688-0.14c-1.125,0-1.968,0.984-1.968,2.109v1.265
		c0,1.266-0.423,2.11-1.266,2.954c-0.984,0.843-1.97,1.124-3.234,1.124h-1.266c-0.845-0.14-1.688-0.281-2.392-0.702
		c-1.828-0.985-2.812-2.532-2.812-4.641v-6.047v-1.548v-1.405v-1.406v-1.547v-1.406v-1.407v-1.547c0-0.422-0.281-0.843,0-1.406
		v-4.218c0-0.281,0-0.563,0.141-0.844c0-0.422,0.141-0.844,0.141-1.266c0,0,0.141,0,0.141-0.141
		c0.281-0.844,0.843-1.688,1.406-2.531c0.141-0.141,0.28-0.141,0.28-0.281c1.548-1.547,3.375-2.391,5.484-2.531
		c0.422,0,0.844,0.141,1.126-0.282c0,0.282,0.14,0.282,0.281,0.282h4.219c0.14,0,0.421-0.14,0.421-0.14
		c0.142,0,0.282,0.14,0.422,0.14c0.845,0,1.547,0,2.392,0.282c0.14,0.14,0.421,0.14,0.702,0.28s0.423,0.281,0.703,0.563
		c0.142,0,0.281,0.141,0.281,0c0.142,0,0.281,0.141,0.281,0.141c0,0.421,0.282,0.421,0.422,0.563
		c0.281,0.281,0.422,0.563,0.563,0.844c0.141,0.141,0.281,0.422,0.423,0.703h0.422c-0.142,0.14-0.142,0.14-0.142,0.422
		c0.423,0.984,0.423,1.688,0.423,2.813v1.266c0,0.281,0,0.562,0.14,0.703c0.282,1.687,1.829,2.813,3.657,2.39c0,0,0.14,0,0.14-0.14
		c0-0.281,0.141-0.281,0.282-0.422c0.14,0,0.14,0,0.14,0.141c0.142,0,0.142,0.14,0.142,0.14c0,0.142-0.142,0.142-0.142,0.281
		c0.142-0.14,0.281-0.281,0.422-0.281c0.422,0.142,0.844-0.14,1.124-0.28c0.282-0.142,0.423-0.422,0.423-0.703
		c0-1.828,0.142-3.656,0.423-5.485c0.28-1.405,0.562-2.812,0.843-4.218c0-0.422,0.141-0.703,0.281-0.984
		c-0.141,0-0.281-0.141-0.422-0.141c0,0,0.141-0.141,0.141-0.281c0.141,0.141,0.141,0.141,0.281,0.141
		c0.423-1.406,0.845-2.813,1.126-4.359c0.14-0.843,0.14-1.688,0-2.531C559.246,456.191,558.685,455.77,557.559,455.77
		 M620.694,415.879v-27.496c0,0-0.187-2.433,2.431-4.864c2.62-2.244,4.303-6.921-0.373-9.727c2.058,3.741-0.375,7.107-4.115,6.921
		c-4.302-0.187-5.985-4.863-3.929-8.23c1.497-2.245,3.929-3.554,6.921-3.554c3.181,0,5.986,2.058,7.295,5.051
		c1.685-2.993,4.863-5.238,8.793-5.238c3.74-0.187,7.293,1.496,9.164,4.489c2.993,4.303,0.936,10.662-4.862,11.036
		c-5.052,0.374-8.418-3.928-5.799-8.978c-5.238,2.992-3.741,9.352,0,12.157c0.936,0.748,3.366,1.87,3.366,5.8v17.395
		c0.374,5.425,4.863,9.914,10.288,10.101h8.979c4.302,0,7.855-3.554,8.043-7.855v-2.619c0-2.432,1.871-4.115,4.114-4.115
		c2.245-0.187,4.303,0.188,4.303,1.497c0,5.798,1.122,11.596,2.619,16.46c1.123,3.928,2.244,9.728-1.31,9.728
		c-0.188,0-58.733-0.188-61.166-0.188c-2.432,0-2.993-9.352,0-11.035C619.76,420.555,620.508,417.188,620.694,415.879
		 M630.981,423.548l-0.562,0.561l0.188,1.496L630.981,423.548z M631.73,418.311l-1.871,2.057l0.188,2.059l1.31-1.123L631.73,418.311
		z M632.479,413.072l-3.367,3.367l0.374,2.244l2.619-2.618L632.479,413.072z M633.413,407.835l-4.862,4.863l0.373,2.059l3.93-3.93
		L633.413,407.835z M634.162,402.598l-6.174,6.173l0.375,2.245l5.424-5.425L634.162,402.598z M634.91,397.36l-7.482,7.669
		l0.188,2.058l6.92-6.733L634.91,397.36z M634.35,393.433l-7.67,7.669l0.375,2.245l8.229-8.231l0.188-1.122
		C635.097,393.807,634.724,393.619,634.35,393.433 M632.104,391.375l-5.986,5.985l0.374,2.058l6.734-6.733
		C632.854,392.31,632.479,391.937,632.104,391.375 M628.551,388.568l1.121-1.122c-0.373-1.122-0.373-1.87-0.373-2.245
		C629.299,385.201,629.111,386.698,628.551,388.568 M625.558,393.619l0.188,2.058l5.424-5.424c-0.374-0.374-0.749-0.937-0.936-1.497
		l-3.366,3.367C626.492,392.685,626.118,393.246,625.558,393.619 M622.108,524.675v-0.281c-0.142-2.25-0.563-4.5-1.267-6.609
		c-2.109-6.188-5.766-11.108-10.969-14.766c-0.14,0-0.281-0.141-0.281-0.141c-0.702-0.281-1.406-0.281-2.25-0.141
		c-0.702,0-1.266,0.422-1.827,0.703c-1.125,0.844-2.25,1.125-3.516,1.267c-0.984,0-1.829-0.142-2.673-0.563
		c-1.406-0.563-2.25-1.687-2.531-3.234h-0.28c0-0.141,0-0.281,0.141-0.281v-0.141c0.281,0.281,0.563,0.422,0.844,0.703
		c1.688,1.406,3.796,1.406,5.484,0c0.703-0.563,1.125-1.406,1.406-2.391c0.702-1.968,0.141-3.938-1.406-5.203
		c-0.142-0.14-0.281-0.281-0.563-0.281h-0.14c0-0.281-0.281-0.281-0.422-0.421c-1.969-0.845-3.938-0.704-5.767,0.421
		c-2.39,1.407-3.655,3.517-4.077,6.047c0,0.142,0,0.282,0.141,0.282c0.14,0.14,0.14,0.14,0,0.281c-0.141,0-0.141,0.14-0.141,0.14
		c-0.142,1.267,0.141,2.25,0.562,3.375h0.143v0.282c0.14,0.281,0.421,0.562,0.562,0.843c0.141,0.142,0.281,0.422,0.422,0.563
		c-0.422,0-0.703,0-0.983,0.141c-2.813,0.422-4.782,2.813-4.924,5.766c0,0.281,0.142,0.423,0.142,0.703c0,0.281,0,0.563,0.14,0.844
		c0.282,1.266,0.845,2.392,2.11,3.094c1.405,0.844,3.094,0.703,4.358-0.281c0.704-0.562,1.126-1.406,1.267-2.25
		c0.422-1.687-0.563-3.375-2.391-3.797h-0.702h-0.563c0.281-0.281,0.984-0.563,1.547-0.843c0.421-0.142,0.843-0.142,1.406-0.142
		c0.983,0.142,1.828,0.703,2.531,1.406c0.563,0.563,0.844,1.125,1.125,1.828c0.14,0.422,0.28,0.703,0.702,0.984
		c0.845,0.703,1.828,1.406,2.673,2.109c1.405,1.125,2.53,2.109,3.515,3.516c1.829,2.391,2.672,5.202,2.672,8.156
		c0,0.141,0,0.281,0.141,0.422v0.141c-0.281,0-0.141,0.281-0.141,0.422c-0.141,1.406-0.422,2.953-0.984,4.219
		c-0.843,2.391-2.25,4.359-4.5,6.188c-0.983,0.703-2.108,1.405-3.233,1.969c-2.39,0.984-4.922,1.265-7.594,0.984
		c-1.97-0.141-3.938-0.844-5.624-1.97c-1.126-0.562-1.97-1.265-2.814-2.108c-0.562-0.563-0.984-1.266-1.124-2.109
		c-0.562-1.687-0.281-3.375,0.703-4.922c0.281-0.563,0.703-0.984,1.125-1.547c0.281-0.563,0.422-1.266,0.422-1.969
		c0-0.142,0-0.281-0.141-0.281c0,0-0.141-0.142-0.141-0.281h0.281c-0.281-0.844-0.562-1.547-1.266-1.969
		c-0.422-0.281-0.845-0.422-1.266-0.703c-0.28-0.141-0.704-0.281-1.126-0.281c-0.421-0.141-0.701,0-0.983,0.281
		c-0.563,0.843-1.125,1.547-1.688,2.25c-0.141,0.141-0.141,0.141-0.141,0.281s-0.14,0.28-0.281,0.28
		c0,0.142-0.141,0.142-0.141,0.142c-0.702,0.703-1.267,1.266-1.828,1.969c-1.406,1.547-3.093,2.953-4.64,4.218
		c-0.984,0.846-1.97,1.688-2.813,2.813c-0.281,0.281-0.421,0.703-0.703,1.125c-0.281,0.562-0.422,1.125-0.141,1.688
		c0.141,0.281,0.423,0.563,0.423,0.844c0.14,0.28,0.281,0.562,0.421,0.844c0.563,0.983,1.125,1.968,1.829,2.953
		c0.14,0.28,0.281,0.562,0.421,0.844c0.141-0.141,0.282-0.141,0.422-0.282l0.142,0.142c-0.142,0.141-0.142,0.28-0.281,0.422
		c0.14,0.14,0.14,0.14,0.14,0.28c1.125,1.406,2.25,2.673,3.517,3.798c0.141,0,0.28,0.141,0.422,0.141c0,0.14,0.14,0.281,0.14,0.281
		c1.687,1.547,3.515,2.671,5.484,3.797h0.28v-0.142h0.142v0.281c0.984,0.422,1.828,0.844,2.813,1.266v-0.141
		c0.142,0,0.142-0.141,0.281-0.141l0.141,0.281l-0.141,0.142c6.891,2.25,13.64,2.109,20.39-0.563v-0.28
		c0,0.14,0.142,0.14,0.142,0.14c1.828-0.703,3.515-1.687,5.203-2.812l0.14-0.142c0.141,0,0.141-0.14,0.281-0.14
		c1.406-0.985,2.673-1.969,3.797-3.235c0.703-0.843,1.548-1.687,2.25-2.531c1.407-1.827,2.532-3.796,3.376-5.765
		c1.265-2.813,1.968-5.625,2.25-8.578v-0.281v-0.141c0.14-1.266,0.14-2.391,0.14-3.516c0-0.141-0.14-0.281-0.14-0.422V524.675z
		 M567.827,494.723l0.14,0.14v0.422c0.846,1.125,1.548,2.11,2.532,3.095c1.968,1.968,4.078,3.515,6.468,5.062
		c0.143,0,0.424,0.141,0.563,0.282c0.141-0.282,0.281-0.282,0.422,0c0,0,0,0.14-0.141,0.281c1.407,0.562,2.672,1.265,3.938,1.969
		c1.406,0.703,2.672,1.265,4.077,1.968c0.845-1.968,2.25-3.375,4.219-4.218c-1.124-3.095-1.124-6.047,0.704-8.86
		c-0.282-0.14-0.704-0.281-0.984-0.422c-0.703-0.422-1.266-0.703-1.97-0.983c-1.828-0.984-3.796-1.97-5.483-3.234
		c-0.141,0-0.141-0.282-0.421-0.141c0-0.282-0.282-0.423-0.424-0.563c-0.422-0.421-0.843-0.703-1.265-1.124
		c0,0.14-0.141,0.281-0.281,0.281s-0.28-0.142-0.28-0.281c0-0.281,0.28-0.281,0.421-0.141c-0.141-0.281-0.281-0.422-0.421-0.845
		c-0.281-0.422-0.422-0.844-0.704-1.405c0-0.141-0.142-0.281-0.142-0.422V485.3c0-0.281-0.14-0.563-0.14-0.702
		c-0.141-2.391,0.14-4.5,0.985-6.61c0.14-0.14,0.14-0.28,0.14-0.421s-0.14-0.141-0.281-0.141c0.142-0.281,0.281-0.422,0.281-0.563
		c0.141,0.141,0.141,0.141,0.281,0.141c1.405-2.671,3.233-4.641,5.765-6.188c0.141,0,0.141-0.141,0.282-0.141
		c0.282-0.141,0.563-0.281,0.844-0.422v-0.141c0.14,0,0.281-0.141,0.281-0.141c0,0.141,0.141,0,0.281,0
		c2.53-0.985,5.062-1.406,7.734-0.985c2.671,0.422,5.063,1.548,7.313,3.376c0.562,0.422,1.125,0.844,1.405,1.546h0.282
		c0,0.142-0.141,0.142-0.141,0.281c0,0.143,0,0.143,0.141,0.282c0.563,1.968,0.421,3.796-0.704,5.484
		c-0.28,0.422-0.562,0.983-0.843,1.406c-0.844,1.405-0.422,3.234,0.843,4.219c0.281,0.281,0.704,0.422,0.985,0.563
		c0.562,0.281,1.124,0.563,1.687,0.703c0.423,0,0.703-0.141,0.845-0.422c0.28-0.281,0.422-0.703,0.703-0.985V485.3
		c0.14-0.141,0.14-0.141,0.28-0.281c0.563-0.703,0.985-1.405,1.547-2.109c0.142-0.141,0.142-0.28,0.142-0.28h0.14
		c0.281-0.422,0.703-0.845,0.985-1.266v-0.423h0.422c0-0.14,0.281-0.281,0.421-0.422c-0.14-0.14-0.14-0.14-0.14-0.281
		c0-0.14,0.14-0.14,0.14-0.28c0,0,0.141,0,0.141-0.141c0.142,0.141,0.142,0.141,0.281,0.281c0,0,0-0.141,0.142-0.141
		c1.125-1.124,2.25-2.25,3.375-3.375c0.422-0.563,0.983-0.984,1.546-1.547c0.704-0.702,1.266-1.548,1.688-2.391
		c0.142-0.563,0.142-0.985,0-1.547c-0.562-0.984-1.125-2.11-1.688-3.094h-0.281c0.141-0.141,0-0.281-0.14-0.422
		c-1.97-2.813-4.22-5.203-7.031-7.173c-1.125-0.843-2.392-1.546-3.517-2.108c-0.141,0.141-0.281,0.141-0.422,0.281
		c0-0.141,0-0.281,0.141-0.423c-0.421-0.28-0.844-0.421-1.266-0.562c-1.125-0.563-2.39-0.984-3.516-1.406
		c-2.25-0.563-4.499-0.983-6.89-1.125c-0.142,0-0.281,0.142-0.142,0.422v0.281c-0.14-0.141-0.14-0.141-0.281-0.141v-0.141
		c0-0.28,0-0.422-0.28-0.422h-0.985c0,0-0.14,0.142-0.281,0.142c0,0-0.14-0.142-0.28-0.142c-1.688,0.142-3.234,0.281-4.923,0.703
		c-1.405,0.281-2.812,0.704-4.218,1.266c0,0-0.141,0-0.141,0.141c-0.142,0-0.142,0.141-0.281,0.282c0-0.142-0.141-0.142-0.141-0.282
		c-1.267,0.703-2.531,1.266-3.938,1.969h0.141v0.281c-0.141,0-0.141-0.141-0.281-0.141c-0.984,0.703-1.969,1.405-2.953,2.109
		c0,0,0.141,0.141,0.141,0.281c-0.141,0-0.28-0.141-0.28-0.141c-1.829,1.405-3.657,3.374-5.063,5.344
		c-0.141,0.141-0.141,0.28-0.141,0.422c-0.141,0.14-0.141,0.14-0.281,0.281c0,0-0.141,0-0.141,0.141
		c-2.109,3.094-3.516,6.468-4.219,10.125c-0.281,1.406-0.422,2.953-0.563,4.359c-0.14,2.812,0.141,5.483,0.985,8.016
		c0.422,1.546,0.983,2.953,1.827,4.218C567.546,494.581,567.687,494.581,567.827,494.723 M677.932,312.627
		c-1.497,4.862-2.619,10.662-2.619,16.461c0,1.309-3.741,1.683-4.114,1.683h-0.188c-2.243,0-4.114-1.871-4.114-4.302v-2.619
		c-0.188-4.302-3.741-7.856-8.043-7.856h-8.979c-5.61,0.374-9.914,4.678-10.288,10.102v29.928c0.374,3.554,3.366,6.359,7.108,6.359
		h2.057c2.993,0,5.425-2.432,5.425-5.237v-1.871c0-1.496,1.31-2.805,2.807-2.805c1.496,0,2.992,0.187,2.992,1.122
		c0,3.741,0.749,7.669,1.684,10.849c0.188,0.562,0.188,0.936,0.188,1.496s0,1.123-0.188,1.684c-0.935,3.18-1.684,7.296-1.684,11.035
		c0,0.937-1.496,1.123-2.992,1.123c-1.497,0-2.807-1.309-2.807-2.805v-1.871c0-2.993-2.432-5.237-5.425-5.237h-1.122
		c-2.432-2.432-5.799-3.929-9.539-3.929h-0.373c-3.367,0.188-6.548,1.497-8.793,3.742c-1.869-2.059-4.676-3.182-7.481-3.182h-0.935
		v-45.64c0-0.935-0.562-4.489-5.052-6.732c-2.993-1.685-2.618-11.037,0-11.037h61.166
		C680.176,303.087,679.055,308.886,677.932,312.627 M634.162,354.339l-3.554-36.475l-3.741,36.475l3.366,8.043h0.748
		L634.162,354.339z M382.493,276.512l0.319-0.385c0,0-0.368-0.069-1.057-0.199C382.235,276.307,382.493,276.512,382.493,276.512
		 M338.465,511.175c-0.141-0.843-0.281-1.547-0.703-2.25c-0.141-0.141-0.141-0.281-0.281-0.281c0-0.14,0-0.281-0.141-0.421
		c-0.422-0.423-0.844-0.845-1.266-1.266c-1.969-1.548-4.219-2.11-6.609-1.688c-2.25,0.422-4.218,1.547-5.484,3.516
		c0,0.141,0,0.141-0.141,0.281c0-0.141,0-0.141-0.141-0.281c-0.984-2.108-3.375-3.797-6.327-3.234
		c-1.829,0.282-3.235,1.126-4.079,2.673c-0.843,1.405-0.984,2.812-0.14,4.218c1.125,1.828,3.656,2.109,5.062,1.125
		c1.266-0.703,1.828-1.969,1.547-3.233c-0.14-0.423-0.281-0.845-0.422-1.267c2.391,1.407,2.672,3.797,1.266,6.047
		c-0.282,0.563-0.844,1.125-1.266,1.688c-1.125,0.984-1.687,2.25-1.687,3.797v1.969v7.313c0,0,0.14,0,0.14,0.141v0.281
		c0,0.14-0.14,0.14-0.14,0.281v6.047v3.655c0,0.703-0.422,2.11-0.844,2.813c-0.844,1.125-1.828,1.968-3.094,2.671
		c-0.281,0.141-0.422,0.281-0.562,0.563c-0.281,0.281-0.422,0.702-0.563,1.125c-0.422,1.406-0.422,2.812-0.281,4.219
		c0.141,0.562,0.281,1.265,0.703,1.828c0.141,0.422,0.422,0.562,0.985,0.562h9.702h0.141c0,0,0.141,0,0.141-0.14
		c0,0,0.141,0,0.141-0.142c0.14,0.142,0.14,0.142,0.14,0.281c0.281,0,0.422-0.14,0.703-0.14c0.141,0,0.282,0.14,0.422,0.14h8.016
		h2.109c0.562,0,0.984-0.281,1.265-0.703c0-0.14,0.141-0.422,0.141-0.563c0.422-1.124,0.563-2.25,0.422-3.374
		c0-0.422,0-0.703-0.141-1.126c-0.14,0.141-0.14,0.282-0.281,0.423c0-0.141-0.141-0.141-0.141-0.282
		c0.141-0.141,0.282-0.422,0.282-0.562c0.14-0.281,0-0.422-0.141-0.703c-0.281-0.703-0.703-1.267-1.406-1.547
		c-0.703-0.422-1.407-0.984-2.109-1.688c-0.563-0.703-1.125-1.406-1.407-2.39c-0.141-0.422-0.141-0.984-0.141-1.547
		c0.141-0.703,0-1.406,0-2.109v-0.141c-0.421-0.141-0.14-0.141,0-0.281v-3.235c0-0.14,0-0.28-0.14-0.421l0.14-0.141v-0.281v-2.672
		v-2.672v-3.516v-1.547c-0.14-1.406-0.702-2.672-1.968-3.375c-0.984-0.563-1.688-1.406-2.25-2.391
		c-0.563-0.984-0.844-2.109-0.844-3.375c0.141-1.547,0.844-2.672,2.11-3.515c0.14-0.142,0.281-0.142,0.421-0.282
		c-0.14,0.423-0.281,0.704-0.421,1.125c-0.422,1.829-0.141,3.375,1.265,4.641c0.141,0,0.281,0,0.281,0.142
		c0.141,0,0.141,0.14,0.282,0.14c1.265,0.844,2.672,0.984,4.218,0.562l0.141-0.14c0.141,0.14,0.281,0,0.422,0
		c0.422-0.281,0.703-0.422,0.984-0.562c0.985-0.703,1.547-1.688,1.828-2.813c0.141-0.563,0.141-1.125,0.141-1.547
		c-0.141,0-0.281,0.141-0.422,0.141C337.902,511.315,338.043,511.175,338.465,511.175 M207.661,274.473
		c0.619-0.138,1.271-0.283,1.956-0.435c0.686-0.14,1.409-0.25,2.16-0.384c1.504-0.251,3.117-0.563,4.843-0.876
		c3.428-0.701,7.38-1.169,11.64-1.849c1.068-0.154,2.152-0.345,3.268-0.478c1.117-0.125,2.254-0.253,3.412-0.383
		c2.313-0.257,4.695-0.573,7.147-0.871c2.462-0.217,4.991-0.44,7.576-0.667c1.291-0.118,2.596-0.237,3.914-0.357
		c1.321-0.083,2.654-0.168,3.999-0.253c2.688-0.172,5.421-0.348,8.187-0.526c2.77-0.104,5.574-0.209,8.4-0.315
		c1.414-0.044,2.83-0.149,4.254-0.142c1.424-0.017,2.852-0.034,4.283-0.051c1.43-0.022,2.863-0.044,4.298-0.065
		c1.435-0.029,2.871-0.048,4.307-0.007c2.872,0.03,5.745,0.061,8.606,0.091c2.861,0.024,5.708,0.189,8.535,0.271
		c5.658,0.128,11.204,0.593,16.589,0.872c2.687,0.191,5.32,0.484,7.909,0.673c2.587,0.205,5.122,0.396,7.572,0.718
		c4.907,0.588,9.569,1.04,13.835,1.714c2.141,0.302,4.193,0.591,6.144,0.867c1.943,0.331,3.786,0.645,5.518,0.94
		c3.464,0.609,6.51,1.061,8.974,1.627c2.475,0.523,4.438,0.884,5.771,1.152c0.388,0.073,0.717,0.136,0.997,0.189
		c-0.126-0.1-0.268-0.213-0.425-0.337c-0.15-0.054-0.308-0.112-0.478-0.173c-1.284-0.448-3.159-1.138-5.57-1.952
		c-1.209-0.391-2.527-0.915-4.004-1.319c-1.468-0.441-3.068-0.874-4.773-1.361c-1.71-0.478-3.529-0.987-5.446-1.523
		c-1.94-0.445-3.979-0.912-6.107-1.4c-1.065-0.242-2.153-0.489-3.262-0.741c-0.554-0.126-1.114-0.253-1.679-0.382
		c-0.569-0.108-1.142-0.217-1.72-0.328c-2.32-0.413-4.717-0.841-7.182-1.281c-2.463-0.471-5.011-0.816-7.616-1.178
		c-2.605-0.368-5.27-0.727-7.984-1.049c-2.721-0.257-5.487-0.518-8.287-0.783c-1.402-0.115-2.809-0.291-4.229-0.358
		c-1.42-0.076-2.847-0.154-4.28-0.231c-1.433-0.078-2.872-0.155-4.315-0.233c-1.443-0.082-2.891-0.162-4.344-0.166
		c-2.904-0.047-5.819-0.094-8.735-0.142c-1.458-0.032-2.916-0.004-4.372,0.033c-1.456,0.031-2.911,0.061-4.363,0.092
		c-2.904,0.052-5.796,0.126-8.661,0.326c-2.865,0.178-5.707,0.355-8.515,0.53c-2.802,0.253-5.569,0.535-8.287,0.819
		c-1.359,0.142-2.706,0.284-4.041,0.424c-1.33,0.19-2.646,0.378-3.95,0.565c-2.602,0.384-5.148,0.759-7.626,1.125
		c-2.465,0.459-4.865,0.879-7.178,1.333c-1.155,0.226-2.292,0.448-3.407,0.666c-1.114,0.225-2.197,0.508-3.262,0.751
		c-4.257,1.002-8.153,1.89-11.557,2.967c-1.706,0.505-3.304,0.959-4.769,1.415c-0.732,0.228-1.44,0.429-2.105,0.654
		c-0.659,0.236-1.289,0.461-1.886,0.675c-2.392,0.844-4.256,1.559-5.534,2.024c-1.273,0.481-1.952,0.737-1.952,0.737
		s0.711-0.145,2.044-0.417C203.228,275.422,205.187,275.033,207.661,274.473 M310.197,433.836H280.83c-2.432,0-2.993-9.54,0-11.037
		c4.489-2.244,5.05-5.611,5.237-6.733v-27.497c0,0,0-2.618,2.619-4.862c2.432-2.245,4.115-6.922-0.561-9.727
		c2.057,3.554-0.375,6.92-4.115,6.733c-4.302,0-5.799-4.677-3.741-8.043c1.309-2.244,3.927-3.554,6.734-3.554
		c3.366,0,6.172,2.058,7.294,4.863c1.684-2.993,5.05-5.051,8.792-5.238c3.927-0.187,7.295,1.685,9.352,4.489
		c2.806,4.49,0.935,10.851-5.05,11.223c-4.863,0.375-8.231-4.114-5.611-8.978c-5.238,2.806-3.929,9.353-0.188,12.159
		c0.936,0.748,3.367,1.87,3.367,5.798v22.82c0.187,1.31,0.935,4.488,5.238,6.546C313.19,424.296,312.629,433.836,310.197,433.836
		 M293.362,388.568l1.31-1.122c-0.375-0.935-0.375-1.684-0.375-2.057C294.297,385.39,294.111,386.886,293.362,388.568
		 M290.743,395.677l5.238-5.237c-0.375-0.561-0.561-1.123-0.748-1.496l-4.864,4.863L290.743,395.677z M291.304,399.605l6.922-6.921
		c-0.561-0.375-0.936-0.748-1.31-1.123l-5.986,5.799L291.304,399.605z M295.794,423.734l-0.561,0.562l0.373,1.496L295.794,423.734z
		 M296.729,418.496l-2.057,1.871l0.373,2.245l1.123-1.31L296.729,418.496z M297.478,413.26l-3.366,3.367l0.373,2.057l2.619-2.618
		L297.478,413.26z M298.227,408.022l-4.677,4.676l0.187,2.244l4.115-4.115L298.227,408.022z M298.975,402.784l-6.173,6.174
		l0.374,2.058l5.424-5.425L298.975,402.784z M299.908,397.548l-7.668,7.481l0.374,2.244l6.733-6.92L299.908,397.548z
		 M300.283,394.18c-0.187-0.187-0.561-0.373-0.936-0.561l-7.668,7.67l0.373,2.058l8.231-8.231V394.18z M511.648,394.18
		c0,7.109-0.187,13.469-2.992,20.202c-1.123,2.806-2.62,5.799-4.864,8.417c-2.245,2.806-5.236,5.237-8.604,6.922
		c-3.366,1.496-6.92,3.179-10.287,3.554c-8.231,0.748-11.971,0.748-20.014,0c-3.554-0.375-7.108-2.058-10.475-3.554
		c-3.368-1.685-6.36-4.116-8.418-6.922c-2.244-2.618-3.928-5.611-5.049-8.417c-1.684-4.115-2.432-8.417-2.62-12.532v-0.188v-13.468
		c0,0,0-2.432,2.62-4.862c2.431-2.244,3.927-6.734-0.562-9.54c2.057,3.554-0.374,6.921-4.115,6.734
		c-4.115-0.188-5.799-4.677-3.741-8.044c1.31-2.245,3.928-3.554,6.734-3.554c3.179,0,5.985,2.058,7.108,4.863
		c1.87-2.993,5.05-5.051,8.791-5.237c3.928,0,7.295,1.683,9.352,4.489c2.807,4.489,0.748,10.662-5.049,11.037
		c-4.865,0.372-8.231-3.93-5.613-8.979c-5.237,2.993-3.74,9.352,0,12.158c0.936,0.748,3.18,1.871,3.18,5.799v5.424
		c0.374,3.18,1.122,6.547,1.871,9.728c0.374,1.683,0.935,3.366,1.683,5.05c0.561,1.683,1.31,3.18,2.432,5.051
		c1.122,1.683,2.806,3.554,4.864,5.05c5.611,4.115,8.229,4.115,13.841,0c2.244-1.496,3.74-3.367,4.862-5.05
		c1.311-1.871,1.871-3.368,2.619-5.051c0.562-1.684,1.122-3.367,1.497-5.05c1.122-4.678,2.057-9.354,2.244-14.217
		c0-7.107-0.188,1.497-0.188-5.799c0,0,0-2.432,2.619-4.862c2.433-2.244,4.114-6.734-0.561-9.54
		c2.057,3.554-0.374,6.921-3.929,6.734c-4.303-0.188-5.985-4.677-3.929-8.044c1.311-2.245,3.929-3.554,6.735-3.554
		c3.366,0,5.985,2.058,7.294,4.863c1.684-2.993,4.863-5.051,8.604-5.237c3.93,0,7.483,1.683,9.354,4.489
		c2.806,4.489,0.936,10.849-4.863,11.223c-5.05,0.187-8.417-4.115-5.799-8.978c-5.238,2.806-3.741,9.164,0,11.971
		c0.937,0.748,3.367,1.871,3.367,5.799V394.18z M445.433,390.065l2.058-2.245c-0.561-1.496-0.561-2.806-0.561-2.806
		C446.555,386.138,446.18,388.008,445.433,390.065 M443.375,396.425l5.611-5.611c-0.187-0.561-0.561-1.122-0.748-1.497l-4.863,4.677
		V396.425z M443.937,400.354l7.295-7.482c-0.561-0.187-0.936-0.748-1.309-1.122l-6.36,6.547
		C443.563,398.856,443.75,399.605,443.937,400.354 M444.685,403.907l7.482-7.482c0.374-1.496,0.749-2.432,0.749-2.432
		c-0.188,0-0.375-0.187-0.561-0.187l-8.231,8.229C444.311,402.598,444.499,403.158,444.685,403.907 M451.605,401.289
		c0-0.936,0-1.684,0.187-2.619l-6.734,6.733c0.187,0.562,0.374,1.122,0.749,1.87L451.605,401.289z M446.929,410.267l4.676-4.676
		v-2.244l-5.425,5.236C446.555,409.145,446.741,409.706,446.929,410.267 M448.425,413.26l3.741-3.741
		c0-0.748-0.187-1.496-0.187-2.057l-4.302,4.114C447.864,412.137,448.238,412.698,448.425,413.26 M450.109,415.879l2.993-2.807
		c-0.187-0.748-0.375-1.309-0.562-2.057l-3.367,3.553C449.547,414.942,449.734,415.505,450.109,415.879 M451.979,418.311
		l2.057-2.058c-0.187-0.563-0.373-1.123-0.56-1.685l-2.619,2.433C451.231,417.563,451.605,417.936,451.979,418.311 M455.346,419.433
		c-0.187-0.562-0.561-1.122-0.749-1.684l-1.682,1.684c0.561,0.374,0.934,0.748,1.309,1.122L455.346,419.433z M456.656,422.237
		c-0.187-0.561-0.562-0.935-0.748-1.496l-0.562,0.748C455.72,421.677,456.281,422.051,456.656,422.237 M504.166,391.749
		l-5.985,5.985c0.188,0.748,0.188,1.496,0.375,2.432l7.107-7.107C505.103,392.685,504.54,392.123,504.166,391.749 M499.304,390.065
		l2.058-2.058c-0.561-1.684-0.561-2.993-0.561-2.993C500.612,386.512,500.052,388.383,499.304,390.065 M497.246,393.993
		c0.187,0.562,0.373,1.122,0.562,2.059l5.424-5.238c-0.562-0.561-0.937-1.122-1.122-1.497L497.246,393.993z M502.482,411.95
		l-7.856,7.856c-0.373,0.748-0.561,1.496-1.122,2.431C497.619,419.619,500.426,415.879,502.482,411.95 M505.288,404.655
		l-8.042,8.043c-0.375,1.122-0.749,2.432-1.311,3.741l8.044-7.856C504.54,407.273,504.914,405.965,505.288,404.655 M506.411,398.856
		l-8.043,8.044c-0.188,0.935-0.374,2.058-0.561,3.18l8.042-8.044C506.036,400.915,506.225,399.793,506.411,398.856 M506.973,393.807
		h-0.188l-8.229,8.229v2.619l8.229-8.044C506.973,394.929,506.973,393.807,506.973,393.807 M665,505.269
		c-0.562,0-1.125,0.141-1.546,0.281c0,0.141,0,0.282-0.141,0.423c-0.14,0-0.14-0.141-0.14-0.282h-0.143
		c-1.124,0.563-2.25,1.267-3.093,2.25c-0.281,0.282-0.422,0.563-0.563,0.844h0.142c0.141,0,0.141,0.141,0.141,0.281
		c0,0-0.141,0-0.141,0.142c-0.142-0.142-0.142-0.142-0.142-0.282v-0.141c-0.14,0.141-0.14,0.141-0.28,0.281
		c-0.141-0.281-0.281-0.843-0.703-0.984V507.8c-2.392-2.953-6.188-2.953-8.578-1.124c-1.406,1.124-2.25,2.531-1.968,4.499
		c0.28,1.406,1.265,2.532,2.671,2.813c0.703,0.281,1.405,0.141,2.109,0c1.688-0.422,2.671-1.829,2.391-3.655
		c-0.141-0.423-0.281-0.845-0.422-1.125h0.141c0.141,0.14,0.281,0.28,0.422,0.421c1.124,0.845,1.688,2.109,1.547,3.516
		s-0.844,2.531-1.969,3.375c-0.141,0.14-0.422,0.422-0.562,0.563c-0.846,0.984-1.267,1.969-1.267,3.234c0.14,2.109,0,4.219,0,6.328
		v9.422v4.359v0.281c0.14,0,0.281-0.141,0.421-0.141c0,0.141,0.142,0.281,0,0.281c0,0.14,0,0.14-0.14,0.14
		c-0.142,0-0.142,0-0.281-0.14c-0.141,0.843-0.422,1.687-0.844,2.25c0.141,0.14,0.141,0.14,0.281,0.281
		c-0.141,0.14-0.141,0.14-0.281,0.28c0-0.141-0.142-0.141-0.142-0.141c-1.265,1.266-1.265,1.266-2.952,2.25
		c-0.281,0.141-0.423,0.422-0.563,0.704c-0.281,0.281-0.422,0.703-0.562,1.125c-0.424,1.125-0.424,2.25-0.282,3.375
		c0,0.281-0.142,0.422,0.141,0.562v0.281v0.142c0.142,0.562,0.281,1.124,0.563,1.688c0.28,0.281,0.563,0.421,0.983,0.421
		c2.531-0.14,22.922,0.281,22.078,0l-0.14-0.14c-0.142-0.142-0.142-0.281,0-0.281c0,0,0,0.14,0.14,0.14h0.281
		c0,0,0,0.142,0.141,0.142c0.142-0.422,0.281-0.703,0.422-0.985c0.282-0.844,0.423-1.687,0.423-2.531c0-1.125,0-2.391-0.423-3.375
		c-0.28-0.562-0.702-0.984-1.266-1.405c-0.702-0.422-1.265-0.845-1.828-1.266c-0.983-0.984-1.828-2.109-1.828-3.656
		c-0.141-0.703-0.141-1.406-0.141-2.25v-11.25v-2.531v-0.141c-0.14-0.141-0.14-0.281,0-0.422v-0.141
		c0.141-1.266-0.14-2.391-0.984-3.375c0-0.141-0.14-0.281-0.421-0.281c0,0,0-0.141-0.141-0.141c0-0.141,0-0.281-0.142-0.281
		c-0.28-0.281-0.702-0.422-0.983-0.704c-0.844-0.702-1.547-1.686-1.969-2.812c-0.281-0.703-0.423-1.405-0.423-2.25
		c0.142-1.688,0.845-2.953,2.392-3.796c0,0,0.047-0.005,0.087-0.033c-0.12,0.246-0.229,0.491-0.229,0.735
		c-0.14,0.423-0.28,0.844-0.28,1.266c0,0.563,0,0.984,0.141,1.407c0.14,0.421,0.281,0.843,0.563,1.125
		c0.14,0.422,0.422,0.702,0.702,0.983c0.984,0.843,2.25,1.266,3.517,1.125c1.266,0,2.39-0.422,3.375-1.406
		c0.843-0.984,1.265-2.109,1.406-3.234c0.14-1.406-0.142-2.813-1.125-3.938C670.625,505.973,668.095,504.847,665,505.269"/>
</g>
</svg>
